  0
SECTION
  2
HEADER
  9
$ACADVER
  1
AC1009
  9
$INSBASE
 10
0.0
 20
0.0
 30
0.0
  9
$EXTMIN
 10
0.0
 20
0.0
 30
0.0
  9
$EXTMAX
 10
280.0
 20
200.0
 30
0.0
  9
$LIMMIN
 10
0.0
 20
0.0
  9
$LIMMAX
 10
0.0
 20
0.0
  9
$ORTHOMODE
 70
     0
  9
$REGENMODE
 70
     1
  9
$FILLMODE
 70
     1
  9
$QTEXTMODE
 70
     0
  9
$MIRRTEXT
 70
     1
  9
$DRAGMODE
 70
     2
  9
$LTSCALE
 40
1.0
  9
$OSMODE
 70
     0
  9
$ATTMODE
 70
     1
  9
$TEXTSIZE
 40
0.2
  9
$TRACEWID
 40
0.05
  9
$TEXTSTYLE
  7
STANDARD
  9
$CLAYER
  8
0
  9
$CELTYPE
  6
CONTINUOUS
  9
$CECOLOR
 62
   256
  9
$DIMSCALE
 40
1.0
  9
$DIMASZ
 40
0.18
  9
$DIMEXO
 40
0.0625
  9
$DIMDLI
 40
0.38
  9
$DIMRND
 40
0.0
  9
$DIMDLE
 40
0.0
  9
$DIMEXE
 40
0.18
  9
$DIMTP
 40
0.0
  9
$DIMTM
 40
0.0
  9
$DIMTXT
 40
0.18
  9
$DIMCEN
 40
0.09
  9
$DIMTSZ
 40
0.0
  9
$DIMTOL
 70
     0
  9
$DIMLIM
 70
     0
  9
$DIMTIH
 70
     1
  9
$DIMTOH
 70
     1
  9
$DIMSE1
 70
     0
  9
$DIMSE2
 70
     0
  9
$DIMTAD
 70
     0
  9
$DIMZIN
 70
     0
  9
$DIMBLK
  1

  9
$DIMASO
 70
     1
  9
$DIMSHO
 70
     1
  9
$DIMPOST
  1

  9
$DIMAPOST
  1

  9
$DIMALT
 70
     0
  9
$DIMALTD
 70
     2
  9
$DIMALTF
 40
25.4
  9
$DIMLFAC
 40
1.0
  9
$DIMTOFL
 70
     0
  9
$DIMTVP
 40
0.0
  9
$DIMTIX
 70
     0
  9
$DIMSOXD
 70
     0
  9
$DIMSAH
 70
     0
  9
$DIMBLK1
  1

  9
$DIMBLK2
  1

  9
$DIMSTYLE
  2
STANDARD
  9
$DIMCLRD
 70
     0
  9
$DIMCLRE
 70
     0
  9
$DIMCLRT
 70
     0
  9
$DIMTFAC
 40
1.0
  9
$DIMGAP
 40
0.09
  9
$LUNITS
 70
     2
  9
$LUPREC
 70
     4
  9
$AXISMODE
 70
     0
  9
$AXISUNIT
 10
0.0
 20
0.0
  9
$SKETCHINC
 40
0.1
  9
$FILLETRAD
 40
0.0
  9
$AUNITS
 70
     0
  9
$AUPREC
 70
     0
  9
$MENU
  1
acad
  9
$ELEVATION
 40
0.0
  9
$PELEVATION
 40
0.0
  9
$THICKNESS
 40
0.0
  9
$LIMCHECK
 70
     0
  9
$BLIPMODE
 70
     1
  9
$CHAMFERA
 40
0.0
  9
$CHAMFERB
 40
0.0
  9
$SKPOLY
 70
     0
  9
$TDCREATE
 40
0.000000000
  9
$TDUPDATE
 40
0.000000000
  9
$TDINDWG
 40
0.0000000000
  9
$TDUSRTIMER
 40
0.0000000000
  9
$USRTIMER
 70
     1
  9
$ANGBASE
 50
0.0
  9
$ANGDIR
 70
     0
  9
$PDMODE
 70
     0
  9
$PDSIZE
 40
0.0
  9
$PLINEWID
 40
0.0
  9
$COORDS
 70
     0
  9
$SPLFRAME
 70
     0
  9
$SPLINETYPE
 70
     6
  9
$SPLINESEGS
 70
     8
  9
$ATTDIA
 70
     0
  9
$ATTREQ
 70
     1
  9
$HANDLING
 70
     1
  9
$HANDSEED
  5
20C
  9
$SURFTAB1
 70
     6
  9
$SURFTAB2
 70
     6
  9
$SURFTYPE
 70
     6
  9
$SURFU
 70
     6
  9
$SURFV
 70
     6
  9
$UCSNAME
  2

  9
$UCSORG
 10
0.0
 20
0.0
 30
0.0
  9
$UCSXDIR
 10
1.0
 20
0.0
 30
0.0
  9
$UCSYDIR
 10
0.0
 20
1.0
 30
0.0
  9
$PUCSNAME
  2

  9
$PUCSORG
 10
0.0
 20
0.0
 30
0.0
  9
$PUCSXDIR
 10
1.0
 20
0.0
 30
0.0
  9
$PUCSYDIR
 10
0.0
 20
1.0
 30
0.0
  9
$USERI1
 70
     0
  9
$USERI2
 70
     0
  9
$USERI3
 70
     0
  9
$USERI4
 70
     0
  9
$USERI5
 70
     0
  9
$USERR1
 40
0.0
  9
$USERR2
 40
0.0
  9
$USERR3
 40
0.0
  9
$USERR4
 40
0.0
  9
$USERR5
 40
0.0
  9
$WORLDVIEW
 70
     1
  9
$SHADEDGE
 70
     3
  9
$SHADEDIF
 70
    70
  9
$TILEMODE
 70
     1
  9
$MAXACTVP
 70
    16
  9
$PINSBASE
 10
0.0
 20
0.0
 30
0.0
  9
$PLIMCHECK
 70
     0
  9
$PEXTMIN
 10
1.000000E+20
 20
1.000000E+20
 30
1.000000E+20
  9
$PEXTMAX
 10
-1.000000E+20
 20
-1.000000E+20
 30
-1.000000E+20
  9
$PLIMMIN
 10
0.0
 20
0.0
  9
$PLIMMAX
 10
12.0
 20
9.0
  9
$UNITMODE
 70
     0
  9
$VISRETAIN
 70
     0
  9
$PLINEGEN
 70
     1
  9
$PSLTSCALE
 70
     0
  9
$TREEDEPTH
 70
  3020
  9
$DWGCODEPAGE
  3
dos850
  0
ENDSEC
  0
SECTION
  2
TABLES
  0
TABLE
  2
VPORT
 70
     1
  0
VPORT
  2
*ACTIVE
 70
     0
 10
0.0
 20
0.0
 11
1.0
 21
1.0
 12
6.591288
 22
4.579184
 13
0.0
 23
0.0
 14
1.0
 24
1.0
 15
0.0
 25
0.0
 16
0.0
 26
0.0
 36
1.0
 17
0.0
 27
0.0
 37
0.0
 40
9.158369
 41
0.688564
 42
50.0
 43
0.0
 44
0.0
 50
0.0
 51
0.0
 71
     0
 72
   100
 73
     1
 74
     1
 75
     0
 76
     0
 77
     0
 78
     0
  0
ENDTAB
  0
TABLE
  2
LTYPE
 70
     2
  0
LTYPE
  2
CONTINUOUS
 70
    64
  3
Solid line
 72
    65
 73
     0
 40
0.0
  0
LTYPE
  2
ECW_3
 70
    64
  3
- -
 72
    65
 73
     3
 40
3.175
 49
0.79375
 49
-1.5875
 49
0.79375
  0
ENDTAB
  0
TABLE
  2
LAYER
 70
    16
  0
LAYER
  2
0
 70
     0
 62
     7
  6
CONTINUOUS
  0
LAYER
  2
MERGE
 70
     0
 62
     7
  6
CONTINUOUS
  0
LAYER
  2
STANDARD
 70
     0
 62
     7
  6
CONTINUOUS
  0
LAYER
  2
CONSTRUCTION
 70
     0
 62
     7
  6
CONTINUOUS
  0
LAYER
  2
TRACK1
 70
     0
 62
     7
  6
CONTINUOUS
  0
LAYER
  2
TRACK2
 70
     0
 62
     7
  6
CONTINUOUS
  0
LAYER
  2
TRACK1PLOTTING
 70
     0
 62
     7
  6
CONTINUOUS
  0
LAYER
  2
TRACK2PLOTTING
 70
     0
 62
     7
  6
CONTINUOUS
  0
LAYER
  2
PLOTAREA
 70
     0
 62
     7
  6
CONTINUOUS
  0
LAYER
  2
TEMP
 70
     0
 62
     7
  6
CONTINUOUS
  0
LAYER
  2
CONSTRUCTIONTRACK2
 70
     0
 62
     7
  6
CONTINUOUS
  0
LAYER
  2
CONSTRUCTIONTRACK1
 70
     0
 62
     7
  6
CONTINUOUS
  0
LAYER
  2
SERVOMOUNT
 70
     0
 62
     7
  6
CONTINUOUS
  0
LAYER
  2
DIMENSIONS
 70
     0
 62
     7
  6
CONTINUOUS
  0
LAYER
  2
CONSTRUCTION1
 70
     0
 62
     7
  6
CONTINUOUS
  0
LAYER
  2
SEVROMOUNTDIMS
 70
     0
 62
     7
  6
CONTINUOUS
  0
ENDTAB
  0
TABLE
  2
STYLE
 70
     2
  0
STYLE
  2
STANDARD
 70
     0
 40
0.0
 41
1.0
 50
0.0
 71
     0
 42
0.0
  3
txt
  4

  0
STYLE
  2
STYLE1
 70
     0
 40
0.0
 41
1.0
 50
0.0
 71
     0
 42
0.0
  3
Arial.ttf
  4

  0
ENDTAB
  0
TABLE
  2
VIEW
 70
     0
  0
ENDTAB
  0
TABLE
  2
UCS
 70
     0
  0
ENDTAB
  0
TABLE
  2
APPID
 70
     1
  0
APPID
  2
ACAD
 70
     0
  0
ENDTAB
  0
TABLE
  2
DIMSTYLE
 70
     1
  0
DIMSTYLE
  2
STANDARD
 70
     0
  3

  4

  5

  6

  7

 40
1.0
 41
0.18
 42
0.0625
 43
0.38
 44
0.18
 45
0.0
 46
0.0
 47
0.0
 48
0.0
 71
     0
 72
     0
 73
     1
 74
     1
 75
     0
 76
     0
 77
     0
 78
     0
140
0.18
141
0.09
142
0.0
143
25.4
144
1.0
145
0.0
146
1.0
147
0.09
170
     0
171
     2
172
     0
173
     0
174
     0
175
     0
176
     0
177
     0
178
     0
  0
ENDTAB
  0
ENDSEC
  0
SECTION
  2
BLOCKS
  0
ENDSEC
  0
SECTION
  2
ENTITIES
  0
LINE
  8
CONSTRUCTION
 62
   142
  5
2D
 10
60.0
 20
60.0
 30
0.0
 11
29.999998
 21
60.0
 31
0.0
  0
POLYLINE
  8
CONSTRUCTION
 62
   142
  5
2E
 66
     1
 10
0.0
 20
0.0
 30
0.0
 70
     1
  0
VERTEX
  8
CONSTRUCTION
 62
   142
  5
2F
 10
100.0
 20
20.0
 30
0.0
  0
VERTEX
  8
CONSTRUCTION
 62
   142
  5
30
 10
100.0
 20
100.0
 30
0.0
  0
VERTEX
  8
CONSTRUCTION
 62
   142
  5
31
 10
20.0
 20
100.0
 30
0.0
  0
VERTEX
  8
CONSTRUCTION
 62
   142
  5
32
 10
20.0
 20
20.0
 30
0.0
  0
SEQEND
  8
0
  5
33
  0
LINE
  8
CONSTRUCTION
 62
   142
  5
34
 10
84.631615
 20
36.388149
 30
0.0
 11
84.631615
 21
41.388149
 31
0.0
  0
LINE
  8
CONSTRUCTION
 62
   142
  5
35
 10
87.131615
 20
38.888149
 30
0.0
 11
82.131615
 21
38.888149
 31
0.0
  0
POLYLINE
  8
PLOTAREA
 62
     1
  5
36
 66
     1
 10
0.0
 20
0.0
 30
0.0
 70
     1
  0
VERTEX
  8
PLOTAREA
 62
     1
  5
37
 10
0.0
 20
0.0
 30
0.0
  0
VERTEX
  8
PLOTAREA
 62
     1
  5
38
 10
0.0
 20
200.0
 30
0.0
  0
VERTEX
  8
PLOTAREA
 62
     1
  5
39
 10
280.0
 20
200.0
 30
0.0
  0
VERTEX
  8
PLOTAREA
 62
     1
  5
3A
 10
280.0
 20
0.0
 30
0.0
  0
SEQEND
  8
0
  5
3B
  0
TEXT
  8
CONSTRUCTION
 62
   142
  5
3C
 10
2.193337
 20
5.356441
 30
0.0
 40
2.348719
  1
Origin (CAD / CAMM1)
 50
359.999983
  7
STYLE1
  0
TEXT
  8
CONSTRUCTION
 62
   142
  5
3D
 10
2.193335
 20
1.833362
 30
0.0
 40
2.348719
  1
Normally (25,25) from physical edge of board
 50
359.999983
  7
STYLE1
  0
LINE
  8
CONSTRUCTION
 62
   142
  5
3E
 10
0.0
 20
0.0
 30
0.0
 11
2.338753
 21
1.829094
 31
0.0
  0
SOLID
  8
CONSTRUCTION
 62
   142
  5
3F
 10
0.0
 20
0.0
 30
0.0
 11
1.440669
 21
1.40439
 31
0.0
 12
1.710158
 22
1.059812
 32
0.0
 13
1.710158
 23
1.059812
 33
0.0
  0
TEXT
  8
CONSTRUCTION
 62
   142
  5
40
 10
19.513241
 20
16.822378
 30
0.0
 40
2.348722
  1
OffSet (20,20)mm Relative
 50
359.999955
  7
STYLE1
  0
TEXT
  8
CONSTRUCTION
 62
   142
  5
41
 10
19.513237
 20
13.299296
 30
0.0
 40
2.348722
  1
           (20+25=45,20+25=45)
 50
359.999955
  7
STYLE1
  0
TEXT
  8
CONSTRUCTION
 62
   142
  5
42
 10
19.513233
 20
9.776215
 30
0.0
 40
2.348722
  1
           (45,45) mm Absolute
 50
359.999955
  7
STYLE1
  0
LINE
  8
CONSTRUCTION
 62
   142
  5
43
 10
20.0
 20
20.0
 30
0.0
 11
22.338753
 21
21.829094
 31
0.0
  0
SOLID
  8
CONSTRUCTION
 62
   142
  5
44
 10
20.0
 20
20.0
 30
0.0
 11
21.44067
 21
21.40439
 31
0.0
 12
21.710157
 22
21.059811
 32
0.0
 13
21.710157
 23
21.059811
 33
0.0
  0
TEXT
  8
CONSTRUCTION
 62
   142
  5
45
 10
114.724594
 20
123.345398
 30
0.0
 40
2.348719
  1
Notes1:-
 50
359.999983
  7
STYLE1
  0
TEXT
  8
CONSTRUCTION
 62
   142
  5
46
 10
114.724594
 20
119.822319
 30
0.0
 40
2.348719
  1

 50
359.999983
  7
STYLE1
  0
TEXT
  8
CONSTRUCTION
 62
   142
  5
47
 10
114.724594
 20
116.29924
 30
0.0
 40
2.348719
  1
1) Choose and mark origin point on A4 backing material
 50
359.999983
  7
STYLE1
  0
TEXT
  8
CONSTRUCTION
 62
   142
  5
48
 10
114.724594
 20
112.776161
 30
0.0
 40
2.348719
  1
    (normally lower left at around (25,25)mm from lower left corner) 
 50
359.999983
  7
STYLE1
  0
TEXT
  8
CONSTRUCTION
 62
   142
  5
49
 10
114.724594
 20
109.253082
 30
0.0
 40
2.348719
  1
2) Fix material to be cut at offset from origin (20,20)mm in
 50
359.999983
  7
STYLE1
  0
TEXT
  8
CONSTRUCTION
 62
   142
  5
4A
 10
114.724594
 20
105.730003
 30
0.0
 40
2.348719
  1
     this case.
 50
359.999983
  7
STYLE1
  0
TEXT
  8
CONSTRUCTION
 62
   142
  5
4B
 10
114.724594
 20
102.206924
 30
0.0
 40
2.348719
  1
3) Place A4 backing + material in CAMM1 and press 'Setup'
 50
359.999983
  7
STYLE1
  0
TEXT
  8
CONSTRUCTION
 62
   142
  5
4C
 10
114.724594
 20
98.683846
 30
0.0
 40
2.348719
  1
4) Adjust cutter to be over marked origin point
 50
359.999983
  7
STYLE1
  0
TEXT
  8
CONSTRUCTION
 62
   142
  5
4D
 10
114.724594
 20
95.160767
 30
0.0
 40
2.348719
  1
5) Press 'Origin Set'
 50
359.999983
  7
STYLE1
  0
TEXT
  8
CONSTRUCTION
 62
   142
  5
4E
 10
114.724594
 20
91.637688
 30
0.0
 40
2.348719
  1
6) Ensure that only traces to be plotted are visible.
 50
359.999983
  7
STYLE1
  0
TEXT
  8
CONSTRUCTION
 62
   142
  5
4F
 10
114.724594
 20
88.114609
 30
0.0
 40
2.348719
  1
7) Plot (see Notes2)
 50
359.999983
  7
STYLE1
  0
TEXT
  8
CONSTRUCTION
 62
   142
  5
50
 10
114.3965
 20
81.691315
 30
0.0
 40
2.348719
  1
Notes2:-
 50
359.999955
  7
STYLE1
  0
TEXT
  8
CONSTRUCTION
 62
   142
  5
51
 10
114.3965
 20
78.168236
 30
0.0
 40
2.348719
  1
CAMM1 Printer Setup
 50
359.999955
  7
STYLE1
  0
TEXT
  8
CONSTRUCTION
 62
   142
  5
52
 10
114.3965
 20
74.645157
 30
0.0
 40
2.348719
  1

 50
359.999955
  7
STYLE1
  0
TEXT
  8
CONSTRUCTION
 62
   142
  5
53
 10
114.3965
 20
71.122078
 30
0.0
 40
2.348719
  1
Width : 279mm
 50
359.999955
  7
STYLE1
  0
TEXT
  8
CONSTRUCTION
 62
   142
  5
54
 10
114.3965
 20
67.598999
 30
0.0
 40
2.348719
  1
Length : 199mm
 50
359.999955
  7
STYLE1
  0
TEXT
  8
CONSTRUCTION
 62
   142
  5
55
 10
114.3965
 20
64.07592
 30
0.0
 40
2.348719
  1

 50
359.999955
  7
STYLE1
  0
TEXT
  8
CONSTRUCTION
 62
   142
  5
56
 10
114.3965
 20
60.552841
 30
0.0
 40
2.348719
  1
Rotate : Off
 50
359.999955
  7
STYLE1
  0
TEXT
  8
CONSTRUCTION
 62
   142
  5
57
 10
114.3965
 20
57.029762
 30
0.0
 40
2.348719
  1
Clipping : Off
 50
359.999955
  7
STYLE1
  0
TEXT
  8
CONSTRUCTION
 62
   142
  5
58
 10
114.3965
 20
53.506683
 30
0.0
 40
2.348719
  1

 50
359.999955
  7
STYLE1
  0
TEXT
  8
CONSTRUCTION
 62
   142
  5
59
 10
114.3965
 20
49.983604
 30
0.0
 40
2.348719
  1
Cutting Origin : Origin
 50
359.999955
  7
STYLE1
  0
TEXT
  8
CONSTRUCTION
 62
   142
  5
5A
 10
114.3965
 20
46.460526
 30
0.0
 40
2.348719
  1
After Cutting : No Change
 50
359.999955
  7
STYLE1
  0
TEXT
  8
CONSTRUCTION
 62
   142
  5
5B
 10
114.3965
 20
42.937447
 30
0.0
 40
2.348719
  1

 50
359.999955
  7
STYLE1
  0
TEXT
  8
CONSTRUCTION
 62
   142
  5
5C
 10
114.3965
 20
39.414368
 30
0.0
 40
2.348719
  1
Scale :  1:1
 50
359.999955
  7
STYLE1
  0
TEXT
  8
CONSTRUCTION
 62
   142
  5
5D
 10
114.3965
 20
35.891289
 30
0.0
 40
2.348719
  1
Orientation : Landscape
 50
359.999955
  7
STYLE1
  0
TEXT
  8
CONSTRUCTION
 62
   142
  5
5E
 10
114.3965
 20
32.36821
 30
0.0
 40
2.348719
  1

 50
359.999955
  7
STYLE1
  0
TEXT
  8
CONSTRUCTION
 62
   142
  5
5F
 10
114.3965
 20
28.845131
 30
0.0
 40
2.348719
  1
RO 4350 Material Er=3.48, h=0.76mm, th=35um 
 50
359.999955
  7
STYLE1
  0
TEXT
  8
CONSTRUCTION
 62
   142
  5
60
 10
114.3965
 20
25.322052
 30
0.0
 40
2.348719
  1
2- Passes at pressure 3 to 4
 50
359.999955
  7
STYLE1
  0
TEXT
  8
CONSTRUCTION
 62
   142
  5
61
 10
114.3965
 20
21.798973
 30
0.0
 40
2.348719
  1
(Normally number of passes is set by duplicating
 50
359.999955
  7
STYLE1
  0
TEXT
  8
CONSTRUCTION
 62
   142
  5
62
 10
114.3965
 20
18.275894
 30
0.0
 40
2.348719
  1
the drawing entities, use list to check for multiple 
 50
359.999955
  7
STYLE1
  0
TEXT
  8
CONSTRUCTION
 62
   142
  5
63
 10
114.3965
 20
14.752815
 30
0.0
 40
2.348719
  1
copies)
 50
359.999955
  7
STYLE1
  0
LINE
  8
CONSTRUCTION
 62
   142
  5
64
 10
60.0
 20
61.700001
 30
0.0
 11
29.999998
 21
61.699997
 31
0.0
  0
POLYLINE
  8
SERVOMOUNT
 62
   114
  5
65
 66
     1
 10
0.0
 20
0.0
 30
0.0
 70
     1
  0
VERTEX
  8
SERVOMOUNT
 62
   114
  5
66
 10
36.917934
 20
89.925041
 30
0.0
  0
VERTEX
  8
SERVOMOUNT
 62
   114
  5
67
 10
28.132475
 20
79.674881
 30
0.0
  0
VERTEX
  8
SERVOMOUNT
 62
   114
  5
68
 10
84.31855
 20
31.517582
 30
0.0
  0
VERTEX
  8
SERVOMOUNT
 62
   114
  5
69
 10
93.103996
 20
41.767742
 30
0.0
  0
SEQEND
  8
0
  5
6A
  0
POLYLINE
  8
SERVOMOUNT
 62
   114
  5
6B
 66
     1
 10
0.0
 20
0.0
 30
0.0
 70
     1
  0
VERTEX
  8
SERVOMOUNT
 62
   114
  5
6C
 10
28.132475
 20
79.674881
 30
0.0
  0
VERTEX
  8
SERVOMOUNT
 62
   114
  5
6D
 10
27.156319
 20
78.535973
 30
0.0
  0
VERTEX
  8
SERVOMOUNT
 62
   114
  5
6E
 10
83.342384
 20
30.378674
 30
0.0
  0
VERTEX
  8
SERVOMOUNT
 62
   114
  5
6F
 10
84.31855
 20
31.517582
 30
0.0
  0
SEQEND
  8
0
  5
70
  0
LINE
  8
CONSTRUCTION
 62
   142
  5
71
 10
60.0
 20
59.999996
 30
0.0
 11
55.042122
 21
31.882444
 31
0.0
  0
LINE
  8
CONSTRUCTION
 62
   142
  5
72
 10
60.000015
 20
59.999992
 30
0.0
 11
84.726166
 21
45.724339
 31
0.0
  0
LINE
  8
CONSTRUCTION
 62
   142
  5
73
 10
60.850021
 20
61.472237
 30
0.0
 11
85.576172
 21
47.196579
 31
0.0
  0
LINE
  8
CONSTRUCTION
 62
   142
  5
74
 10
60.000004
 20
59.999985
 30
0.0
 11
47.933708
 21
34.123714
 31
0.0
  0
LINE
  8
CONSTRUCTION
 62
   142
  5
75
 10
90.0
 20
58.300003
 30
0.0
 11
59.999996
 21
58.299999
 31
0.0
  0
CIRCLE
  8
CONSTRUCTION
 62
   142
  5
76
 10
60.0
 20
60.0
 30
0.0
 40
2.0
  0
LINE
  8
CONSTRUCTION
 62
   142
  5
77
 10
60.0
 20
59.999996
 30
0.0
 11
60.000004
 21
31.448689
 31
0.0
  0
ARC
  8
DIMENSIONS
 62
     2
  5
78
 10
60.0
 20
59.999996
 30
0.0
 40
28.551321
 50
270.000028
 51
291.806168
  0
ARC
  8
DIMENSIONS
 62
     2
  5
79
 10
60.0
 20
59.999996
 30
0.0
 40
28.551321
 50
306.584297
 51
330.000016
  0
TEXT
  8
DIMENSIONS
 62
     2
  5
7A
 10
71.405899
 20
34.273834
 30
0.0
 40
2.0
  1
60.0%%D
  7
STYLE1
 72
     1
 11
74.275673
 21
35.273834
 31
0.0
 73
     2
  0
SOLID
  8
DIMENSIONS
 62
     2
  5
7B
 10
60.000015
 20
31.448675
 30
0.0
 11
62.570015
 21
32.018677
 31
0.0
 12
62.570015
 22
30.878677
 32
0.0
 13
62.570015
 23
30.878677
 33
0.0
  0
SOLID
  8
DIMENSIONS
 62
     2
  5
7C
 10
84.726173
 20
45.724342
 30
0.0
 11
83.934807
 21
43.213657
 31
0.0
 12
82.94754
 22
43.783657
 32
0.0
 13
82.94754
 23
43.783657
 33
0.0
  0
CIRCLE
  8
CONSTRUCTION
  6
ECW_3
 62
   142
  5
7E
 10
60.0
 20
60.0
 30
0.0
 40
14.0
  0
CIRCLE
  8
CONSTRUCTION
 62
   142
  5
7F
 10
84.631615
 20
38.888153
 30
0.0
 40
4.0
  0
LINE
  8
CONSTRUCTION
 62
   142
  5
80
 10
32.868389
 20
81.111847
 30
0.0
 11
37.868382
 21
81.111847
 31
0.0
  0
LINE
  8
CONSTRUCTION
 62
   142
  5
81
 10
35.368382
 20
83.611855
 30
0.0
 11
35.368385
 21
78.611847
 31
0.0
  0
CIRCLE
  8
CONSTRUCTION
 62
   142
  5
82
 10
35.368382
 20
81.111855
 30
0.0
 40
4.0
  0
LINE
  8
CONSTRUCTION
 62
   142
  5
83
 10
31.729485
 20
37.911987
 30
0.0
 11
36.729485
 21
37.911987
 31
0.0
  0
LINE
  8
CONSTRUCTION
 62
   142
  5
84
 10
34.229485
 20
35.411987
 30
0.0
 11
34.229485
 21
40.411987
 31
0.0
  0
LINE
  8
CONSTRUCTION
 62
   142
  5
85
 10
85.770531
 20
84.588005
 30
0.0
 11
85.770531
 21
79.588005
 31
0.0
  0
LINE
  8
CONSTRUCTION
 62
   142
  5
86
 10
88.270531
 20
82.088005
 30
0.0
 11
83.270531
 21
82.088005
 31
0.0
  0
CIRCLE
  8
CONSTRUCTION
 62
   142
  5
87
 10
85.770523
 20
82.088005
 30
0.0
 40
2.5
  0
CIRCLE
  8
CONSTRUCTION
 62
   142
  5
88
 10
34.229477
 20
37.911987
 30
0.0
 40
2.5
  0
POLYLINE
  8
CONSTRUCTION
 62
     3
  5
89
 66
     1
 10
0.0
 20
0.0
 30
0.0
 70
     1
  0
VERTEX
  8
CONSTRUCTION
 62
     3
  5
8A
 10
95.0
 20
62.150002
 30
0.0
  0
VERTEX
  8
CONSTRUCTION
 62
     3
  5
8B
 10
91.0
 20
62.150009
 30
0.0
  0
VERTEX
  8
CONSTRUCTION
 62
     3
  5
8C
 10
90.999992
 20
56.150009
 30
0.0
  0
VERTEX
  8
CONSTRUCTION
 62
     3
  5
8D
 10
94.999992
 20
56.150002
 30
0.0
  0
SEQEND
  8
0
  5
8E
  0
LINE
  8
CONSTRUCTION
 62
     3
  5
8F
 10
91.0
 20
59.150009
 30
0.0
 11
95.0
 21
59.150002
 31
0.0
  0
POLYLINE
  8
CONSTRUCTION
 62
     3
  5
90
 66
     1
 10
0.0
 20
0.0
 30
0.0
 70
     1
  0
VERTEX
  8
CONSTRUCTION
 62
     3
  5
91
 10
28.999998
 20
63.849995
 30
0.0
  0
VERTEX
  8
CONSTRUCTION
 62
     3
  5
92
 10
25.0
 20
63.849995
 30
0.0
  0
VERTEX
  8
CONSTRUCTION
 62
     3
  5
93
 10
25.0
 20
57.849998
 30
0.0
  0
VERTEX
  8
CONSTRUCTION
 62
     3
  5
94
 10
28.999998
 20
57.849998
 30
0.0
  0
SEQEND
  8
0
  5
95
  0
LINE
  8
CONSTRUCTION
 62
     3
  5
96
 10
25.0
 20
60.849998
 30
0.0
 11
28.999998
 21
60.849998
 31
0.0
  0
POLYLINE
  8
CONSTRUCTION
 62
   142
  5
97
 66
     1
 10
0.0
 20
0.0
 30
0.0
 70
     1
  0
VERTEX
  8
CONSTRUCTION
 62
   142
  5
98
 10
95.0
 20
30.0
 30
0.0
  0
VERTEX
  8
CONSTRUCTION
 62
   142
  5
99
 10
95.0
 20
90.0
 30
0.0
  0
VERTEX
  8
CONSTRUCTION
 62
   142
  5
9A
 10
25.0
 20
90.0
 30
0.0
  0
VERTEX
  8
CONSTRUCTION
 62
   142
  5
9B
 10
25.0
 20
29.999998
 30
0.0
  0
SEQEND
  8
0
  5
9C
  0
CIRCLE
  8
CONSTRUCTION
 62
   142
  5
9D
 10
60.0
 20
60.0
 30
0.0
 40
13.15
  0
CIRCLE
  8
CONSTRUCTION
 62
   142
  5
9E
 10
60.0
 20
60.0
 30
0.0
 40
14.85
  0
CIRCLE
  8
CONSTRUCTION
 62
   142
  5
9F
 10
60.0
 20
60.0
 30
0.0
 40
21.15
  0
CIRCLE
  8
CONSTRUCTION
 62
   142
  5
A0
 10
60.0
 20
60.0
 30
0.0
 40
22.85
  0
LINE
  8
TRACK1
 62
     1
  5
A1
 10
38.849998
 20
60.0
 30
0.0
 11
37.208214
 21
61.699997
 31
0.0
  0
LINE
  8
TRACK1
 62
     1
  5
A2
 10
45.150002
 20
60.0
 30
0.0
 11
46.96035
 21
61.700001
 31
0.0
  0
LINE
  8
TRACK1
 62
     1
  5
A3
 10
25.0
 20
60.0
 30
0.0
 11
28.999998
 21
60.0
 31
0.0
  0
LINE
  8
TRACK1
 62
     1
  5
A4
 10
25.0
 20
61.699997
 30
0.0
 11
28.999998
 21
61.699997
 31
0.0
  0
LINE
  8
TRACK1
 62
     1
  5
A5
 10
28.999998
 20
61.699997
 30
0.0
 11
37.208214
 21
61.699997
 31
0.0
  0
LINE
  8
TRACK1
 62
     1
  5
A6
 10
28.999998
 20
60.0
 30
0.0
 11
37.150002
 21
60.0
 31
0.0
  0
ARC
  8
DIMENSIONS
 62
     2
  5
A7
 10
59.999996
 20
59.999989
 30
0.0
 40
28.551321
 50
90.000023
 51
111.806174
  0
ARC
  8
DIMENSIONS
 62
     2
  5
A8
 10
59.999996
 20
59.999989
 30
0.0
 40
28.551321
 50
126.584319
 51
150.000011
  0
TEXT
  8
DIMENSIONS
 62
     2
  5
A9
 10
42.854553
 20
83.726151
 30
0.0
 40
2.0
  1
60.0%%D
  7
STYLE1
 72
     1
 11
45.724327
 21
84.726151
 31
0.0
 73
     2
  0
SOLID
  8
DIMENSIONS
 62
     2
  5
AA
 10
59.999985
 20
88.551308
 30
0.0
 11
57.429985
 21
87.981308
 31
0.0
 12
57.429985
 22
89.121307
 32
0.0
 13
57.429985
 23
89.121307
 33
0.0
  0
SOLID
  8
DIMENSIONS
 62
     2
  5
AB
 10
35.273823
 20
74.275642
 30
0.0
 11
36.065189
 21
76.786331
 31
0.0
 12
37.052456
 22
76.216331
 32
0.0
 13
37.052456
 23
76.216331
 33
0.0
  0
LINE
  8
TRACK1
 62
     1
  5
AC
 10
81.150002
 20
59.999992
 30
0.0
 11
82.791786
 21
58.299995
 31
0.0
  0
LINE
  8
TRACK1
 62
     1
  5
AD
 10
74.849991
 20
59.999992
 30
0.0
 11
73.039642
 21
58.299992
 31
0.0
  0
LINE
  8
TRACK1
 62
     1
  5
AE
 10
94.999992
 20
59.999989
 30
0.0
 11
90.999992
 21
59.999989
 31
0.0
  0
LINE
  8
TRACK1
 62
     1
  5
AF
 10
94.999992
 20
58.299992
 30
0.0
 11
90.999992
 21
58.299992
 31
0.0
  0
LINE
  8
TRACK1
 62
     1
  5
B0
 10
90.999992
 20
58.299992
 30
0.0
 11
82.791786
 21
58.299995
 31
0.0
  0
LINE
  8
TRACK1
 62
     1
  5
B1
 10
90.999992
 20
59.999989
 30
0.0
 11
82.849998
 21
59.999992
 31
0.0
  0
LINE
  8
CONSTRUCTION
 62
   142
  5
B2
 10
59.999996
 20
59.999989
 30
0.0
 11
64.95787
 21
88.117538
 31
0.0
  0
LINE
  8
CONSTRUCTION
 62
   142
  5
B3
 10
59.999981
 20
59.999996
 30
0.0
 11
35.273834
 21
74.27565
 31
0.0
  0
LINE
  8
CONSTRUCTION
 62
   142
  5
B4
 10
59.149975
 20
58.527752
 30
0.0
 11
34.42382
 21
72.803413
 31
0.0
  0
LINE
  8
CONSTRUCTION
 62
   142
  5
B5
 10
59.999996
 20
60.0
 30
0.0
 11
72.066292
 21
85.876266
 31
0.0
  0
LINE
  8
CONSTRUCTION
 62
   142
  5
B6
 10
59.999996
 20
59.999989
 30
0.0
 11
59.999985
 21
88.551292
 31
0.0
  0
LINE
  8
TRACK1
 62
     1
  5
B7
 10
94.999992
 20
59.999989
 30
0.0
 11
94.999992
 21
58.299992
 31
0.0
  0
LINE
  8
TRACK1
 62
     1
  5
B8
 10
25.0
 20
61.699997
 30
0.0
 11
25.0
 21
60.0
 31
0.0
  0
CIRCLE
  8
CONSTRUCTION
  6
ECW_3
 62
   142
  5
B9
 10
60.0
 20
60.0
 30
0.0
 40
6.0
  0
CIRCLE
  8
CONSTRUCTION
 62
   142
  5
BA
 10
60.0
 20
60.0
 30
0.0
 40
5.15
  0
CIRCLE
  8
CONSTRUCTION
 62
   142
  5
BB
 10
60.0
 20
60.0
 30
0.0
 40
6.85
  0
LINE
  8
TRACK1
 62
     1
  5
BC
 10
66.849998
 20
60.0
 30
0.0
 11
73.149994
 21
60.000004
 31
0.0
  0
LINE
  8
TRACK1
 62
     1
  5
BD
 10
53.364304
 20
61.700001
 30
0.0
 11
46.96035
 21
61.700001
 31
0.0
  0
LINE
  8
TRACK1
 62
     1
  5
BE
 10
73.03965
 20
58.300003
 30
0.0
 11
66.635696
 21
58.300003
 31
0.0
  0
LINE
  8
TRACK1
 62
     1
  5
BF
 10
53.150002
 20
60.0
 30
0.0
 11
46.849998
 21
60.000004
 31
0.0
  0
ARC
  8
TRACK1
 62
     1
  5
C0
 10
59.999996
 20
59.999996
 30
0.0
 40
6.85
 50
0.00001
 51
165.630485
  0
ARC
  8
TRACK1
 62
     1
  5
C1
 10
59.999996
 20
59.999996
 30
0.0
 40
5.15
 50
0.00001
 51
160.725371
  0
LINE
  8
TRACK1
 62
     1
  5
C2
 10
55.138672
 20
61.699993
 30
0.0
 11
53.150002
 21
60.0
 31
0.0
  0
LINE
  8
TRACK1
 62
     1
  5
C3
 10
65.149994
 20
59.999996
 30
0.0
 11
66.635696
 21
58.300003
 31
0.0
  0
CIRCLE
  8
SERVOMOUNT
 62
     3
  5
C4
 10
60.000004
 20
60.000008
 30
0.0
 40
1.5
  0
LINE
  8
SERVOMOUNT
 62
     3
  5
C5
 10
58.10183
 20
61.626942
 30
0.0
 11
61.898186
 21
58.373074
 31
0.0
  0
LINE
  8
SERVOMOUNT
 62
     3
  5
C6
 10
58.37307
 20
58.10183
 30
0.0
 11
61.626942
 21
61.898186
 31
0.0
  0
POLYLINE
  8
SERVOMOUNT
 62
     3
  5
C7
 66
     1
 10
0.0
 20
0.0
 30
0.0
 70
     1
  0
VERTEX
  8
SERVOMOUNT
 62
     3
  5
C8
 10
44.077171
 20
66.008621
 30
0.0
  0
VERTEX
  8
SERVOMOUNT
 62
     3
  5
C9
 10
60.781143
 20
51.691593
 30
0.0
  0
VERTEX
  8
SERVOMOUNT
 62
     3
  5
CA
 10
68.330116
 20
60.499138
 30
0.0
  0
VERTEX
  8
SERVOMOUNT
 62
     3
  5
CB
 10
51.626152
 20
74.81617
 30
0.0
  0
SEQEND
  8
0
  5
CC
  0
CIRCLE
  8
SERVOMOUNT
 62
     3
  5
CD
 10
66.833443
 20
54.143044
 30
0.0
 40
1.5
  0
LINE
  8
SERVOMOUNT
 62
     3
  5
CE
 10
64.935265
 20
55.769974
 30
0.0
 11
68.731621
 21
52.516106
 31
0.0
  0
LINE
  8
SERVOMOUNT
 62
     3
  5
CF
 10
65.206505
 20
52.244862
 30
0.0
 11
68.460381
 21
56.041214
 31
0.0
  0
CIRCLE
  8
SERVOMOUNT
 62
     3
  5
D0
 10
45.573853
 20
72.364731
 30
0.0
 40
1.5
  0
LINE
  8
SERVOMOUNT
 62
     3
  5
D1
 10
43.675674
 20
73.991661
 30
0.0
 11
47.472031
 21
70.737793
 31
0.0
  0
LINE
  8
SERVOMOUNT
 62
     3
  5
D2
 10
43.946915
 20
70.466553
 30
0.0
 11
47.200783
 21
74.262901
 31
0.0
  0
CIRCLE
  8
SERVOMOUNT
 62
     3
  5
D3
 10
60.000004
 20
60.000008
 30
0.0
 40
1.5
  0
LINE
  8
SERVOMOUNT
 62
     3
  5
D4
 10
58.10183
 20
61.626942
 30
0.0
 11
61.898186
 21
58.373074
 31
0.0
  0
LINE
  8
SERVOMOUNT
 62
     3
  5
D5
 10
58.37307
 20
58.10183
 30
0.0
 11
61.626942
 21
61.898186
 31
0.0
  0
CIRCLE
  8
CONSTRUCTION
  6
ECW_3
 62
   142
  5
D6
 10
60.0
 20
60.0
 30
0.0
 40
22.0
  0
CIRCLE
  8
CONSTRUCTION
 62
   142
  5
D7
 10
60.0
 20
60.0
 30
0.0
 40
27.5
  0
LINE
  8
SERVOMOUNT
  6
ECW_3
 62
   116
  5
D8
 10
89.509644
 20
34.707176
 30
0.0
 11
29.731077
 21
85.943604
 31
0.0
  0
LINE
  8
SERVOMOUNT
  6
ECW_3
 62
   116
  5
D9
 10
79.183296
 20
32.53149
 30
0.0
 11
90.079933
 21
45.244808
 31
0.0
  0
LINE
  8
SERVOMOUNT
  6
ECW_3
 62
   116
  5
DA
 10
29.920057
 20
74.755188
 30
0.0
 11
40.816692
 21
87.468513
 31
0.0
  0
CIRCLE
  8
SERVOMOUNT
 62
   116
  5
DB
 10
84.631615
 20
38.888153
 30
0.0
 40
2.5
  0
CIRCLE
  8
SERVOMOUNT
 62
   116
  5
DC
 10
35.368382
 20
81.111855
 30
0.0
 40
2.5
  0
CIRCLE
  8
TRACK1
 62
     1
  5
DD
 10
85.770523
 20
82.088005
 30
0.0
 40
0.125
  0
CIRCLE
  8
TRACK1
 62
     1
  5
DE
 10
84.631615
 20
38.888153
 30
0.0
 40
0.125
  0
CIRCLE
  8
TRACK1
 62
     1
  5
DF
 10
34.229477
 20
37.911987
 30
0.0
 40
0.125
  0
CIRCLE
  8
TRACK1
 62
     1
  5
E0
 10
35.368382
 20
81.111855
 30
0.0
 40
0.125
  0
POLYLINE
  8
TRACK1
 62
     1
  5
E1
 66
     1
 10
0.0
 20
0.0
 30
0.0
 70
     1
  0
VERTEX
  8
TRACK1
 62
     1
  5
E2
 10
95.0
 20
30.0
 30
0.0
  0
VERTEX
  8
TRACK1
 62
     1
  5
E3
 10
95.0
 20
90.0
 30
0.0
  0
VERTEX
  8
TRACK1
 62
     1
  5
E4
 10
25.0
 20
90.0
 30
0.0
  0
VERTEX
  8
TRACK1
 62
     1
  5
E5
 10
25.0
 20
29.999998
 30
0.0
  0
SEQEND
  8
0
  5
E6
  0
CIRCLE
  8
TRACK1
 62
     1
  5
E7
 10
59.999996
 20
59.999996
 30
0.0
 40
0.125
  0
POLYLINE
  8
CONSTRUCTION1
 62
     6
  5
E8
 66
     1
 10
0.0
 20
0.0
 30
0.0
 70
     1
  0
VERTEX
  8
CONSTRUCTION1
 62
     6
  5
E9
 10
90.0
 20
35.0
 30
0.0
  0
VERTEX
  8
CONSTRUCTION1
 62
     6
  5
EA
 10
90.0
 20
85.0
 30
0.0
  0
VERTEX
  8
CONSTRUCTION1
 62
     6
  5
EB
 10
29.999998
 20
85.0
 30
0.0
  0
VERTEX
  8
CONSTRUCTION1
 62
     6
  5
EC
 10
30.0
 20
34.999996
 30
0.0
  0
SEQEND
  8
0
  5
ED
  0
CIRCLE
  8
TRACK2
 62
    20
  5
EE
 10
60.0
 20
59.999996
 30
0.0
 40
27.5
  0
CIRCLE
  8
TRACK2
 62
    20
  5
EF
 10
60.0
 20
59.999996
 30
0.0
 40
2.0
  0
ARC
  8
DIMENSIONS
 62
     2
  5
F0
 10
60.0
 20
60.0
 30
0.0
 40
28.551315
 50
179.999991
 51
208.31088
  0
ARC
  8
DIMENSIONS
 62
     2
  5
F1
 10
60.0
 20
60.0
 30
0.0
 40
28.551315
 50
216.894542
 51
245.000033
  0
TEXT
  8
DIMENSIONS
 62
     2
  5
F2
 10
33.050293
 20
43.659386
 30
0.0
 40
2.0
  1
65.0%%D
  7
STYLE1
 72
     1
 11
35.920067
 21
44.659386
 31
0.0
 73
     2
  0
SOLID
  8
DIMENSIONS
 62
     2
  5
F3
 10
31.448685
 20
60.000004
 30
0.0
 11
32.018684
 21
57.430004
 31
0.0
 12
30.878685
 22
57.430004
 32
0.0
 13
30.878685
 23
57.430004
 33
0.0
  0
SOLID
  8
DIMENSIONS
 62
     2
  5
F4
 10
47.933708
 20
34.123714
 30
0.0
 11
45.363605
 21
34.693245
 31
0.0
 12
45.84539
 22
35.726437
 32
0.0
 13
45.84539
 23
35.726437
 33
0.0
  0
ARC
  8
DIMENSIONS
 62
     2
  5
F5
 10
59.999996
 20
59.999996
 30
0.0
 40
28.551315
 50
359.999983
 51
388.310842
  0
ARC
  8
DIMENSIONS
 62
     2
  5
F6
 10
59.999996
 20
59.999996
 30
0.0
 40
28.551315
 50
36.89453
 51
65.000025
  0
TEXT
  8
DIMENSIONS
 62
     2
  5
F7
 10
81.210159
 20
74.340599
 30
0.0
 40
2.0
  1
65.0%%D
  7
STYLE1
 72
     1
 11
84.079933
 21
75.340599
 31
0.0
 73
     2
  0
SOLID
  8
DIMENSIONS
 62
     2
  5
F8
 10
88.551308
 20
59.999989
 30
0.0
 11
87.981308
 21
62.569988
 31
0.0
 12
89.121307
 22
62.569988
 32
0.0
 13
89.121307
 23
62.569988
 33
0.0
  0
SOLID
  8
DIMENSIONS
 62
     2
  5
F9
 10
72.066292
 20
85.876282
 30
0.0
 11
74.636398
 21
85.306747
 31
0.0
 12
74.15461
 22
84.27356
 32
0.0
 13
74.15461
 23
84.27356
 33
0.0
  0
ARC
  8
TRACK1
 62
     1
  5
FA
 10
60.0
 20
60.0
 30
0.0
 40
13.150001
 50
179.999991
 51
260.00001
  0
ARC
  8
TRACK1
 62
     1
  5
FB
 10
60.0
 20
60.0
 30
0.0
 40
14.85
 50
180.000005
 51
260.000037
  0
ARC
  8
TRACK1
 62
     1
  5
FC
 10
60.0
 20
60.0
 30
0.0
 40
21.15
 50
179.999991
 51
260.00003
  0
ARC
  8
TRACK1
 62
     1
  5
FD
 10
60.0
 20
60.0
 30
0.0
 40
22.850002
 50
179.999991
 51
260.00003
  0
LINE
  8
TRACK1
 62
     1
  5
FE
 10
57.716526
 20
47.049778
 30
0.0
 11
57.421333
 21
45.375603
 31
0.0
  0
LINE
  8
TRACK1
 62
     1
  5
FF
 10
56.327351
 20
39.171314
 30
0.0
 11
56.03215
 21
37.497139
 31
0.0
  0
ARC
  8
TRACK1
 62
     1
  5
100
 10
59.999996
 20
59.999996
 30
0.0
 40
13.150001
 50
359.999983
 51
440.000001
  0
ARC
  8
TRACK1
 62
     1
  5
101
 10
59.999996
 20
59.999996
 30
0.0
 40
14.85
 50
0.00001
 51
80.000042
  0
ARC
  8
TRACK1
 62
     1
  5
102
 10
59.999996
 20
59.999996
 30
0.0
 40
21.15
 50
359.999983
 51
440.000021
  0
ARC
  8
TRACK1
 62
     1
  5
103
 10
59.999996
 20
59.999996
 30
0.0
 40
22.850002
 50
359.999983
 51
440.000021
  0
LINE
  8
TRACK1
 62
     1
  5
104
 10
62.28347
 20
72.950218
 30
0.0
 11
62.578663
 21
74.62439
 31
0.0
  0
LINE
  8
TRACK1
 62
     1
  5
105
 10
63.672642
 20
80.828682
 30
0.0
 11
63.967842
 21
82.502853
 31
0.0
  0
ARC
  8
DIMENSIONS
 62
     2
  5
106
 10
60.0
 20
60.0
 30
0.0
 40
15.997116
 50
270.000001
 51
288.409587
  0
ARC
  8
DIMENSIONS
 62
     2
  5
107
 10
60.0
 20
60.0
 30
0.0
 40
15.997116
 50
241.590403
 51
259.999989
  0
TEXT
  8
DIMENSIONS
 62
     2
  5
108
 10
45.849476
 20
44.929436
 30
0.0
 40
2.0
  1
10.0%%D
  7
STYLE1
 72
     2
 11
52.389027
 21
45.929436
 31
0.0
 73
     2
  0
SOLID
  8
DIMENSIONS
 62
     2
  5
109
 10
57.22213
 20
44.245914
 30
0.0
 11
54.592194
 21
44.130848
 31
0.0
 12
54.790154
 22
45.253529
 32
0.0
 13
54.790154
 23
45.253529
 33
0.0
  0
SOLID
  8
DIMENSIONS
 62
     2
  5
10A
 10
60.0
 20
44.002884
 30
0.0
 11
62.57
 21
44.572884
 31
0.0
 12
62.57
 22
43.432884
 32
0.0
 13
62.57
 23
43.432884
 33
0.0
  0
ARC
  8
DIMENSIONS
 62
     2
  5
10B
 10
60.0
 20
60.0
 30
0.0
 40
24.039591
 50
260.00003
 51
272.250667
  0
ARC
  8
DIMENSIONS
 62
     2
  5
10C
 10
60.0
 20
60.0
 30
0.0
 40
24.039591
 50
232.749406
 51
245.000042
  0
TEXT
  8
DIMENSIONS
 62
     2
  5
10D
 10
38.909229
 20
39.86459
 30
0.0
 40
2.0
  1
15.0%%D
  7
STYLE1
 72
     2
 11
45.44878
 21
40.86459
 31
0.0
 73
     2
  0
SOLID
  8
DIMENSIONS
 62
     2
  5
10E
 10
49.840443
 20
38.212727
 30
0.0
 11
47.27034
 21
38.782257
 31
0.0
 12
47.752125
 22
39.815449
 32
0.0
 13
47.752125
 23
39.815449
 33
0.0
  0
SOLID
  8
DIMENSIONS
 62
     2
  5
10F
 10
55.825581
 20
36.325623
 30
0.0
 11
58.455517
 21
36.440689
 31
0.0
 12
58.257557
 22
35.318008
 32
0.0
 13
58.257557
 23
35.318008
 33
0.0
  0
ARC
  8
DIMENSIONS
 62
     2
  5
110
 10
59.999996
 20
59.999996
 30
0.0
 40
15.997116
 50
89.999996
 51
108.409582
  0
ARC
  8
DIMENSIONS
 62
     2
  5
111
 10
59.999996
 20
59.999996
 30
0.0
 40
15.997116
 50
61.590418
 51
80.000005
  0
TEXT
  8
DIMENSIONS
 62
     2
  5
112
 10
68.410965
 20
73.070564
 30
0.0
 40
2.0
  1
10.0%%D
  7
STYLE1
 11
67.610962
 21
74.070564
 31
0.0
 73
     2
  0
SOLID
  8
DIMENSIONS
 62
     2
  5
113
 10
62.777866
 20
75.754082
 30
0.0
 11
65.407799
 21
75.869148
 31
0.0
 12
65.209846
 22
74.746468
 32
0.0
 13
65.209846
 23
74.746468
 33
0.0
  0
SOLID
  8
DIMENSIONS
 62
     2
  5
114
 10
59.999996
 20
75.997108
 30
0.0
 11
57.429996
 21
75.427109
 31
0.0
 12
57.429996
 22
76.567108
 32
0.0
 13
57.429996
 23
76.567108
 33
0.0
  0
ARC
  8
DIMENSIONS
 62
     2
  5
115
 10
59.999996
 20
59.999996
 30
0.0
 40
24.039591
 50
80.000025
 51
92.250662
  0
ARC
  8
DIMENSIONS
 62
     2
  5
116
 10
59.999996
 20
59.999996
 30
0.0
 40
24.039591
 50
52.74939
 51
65.000027
  0
TEXT
  8
DIMENSIONS
 62
     2
  5
117
 10
75.351219
 20
78.135406
 30
0.0
 40
2.0
  1
15.0%%D
  7
STYLE1
 11
74.551216
 21
79.135406
 31
0.0
 73
     2
  0
SOLID
  8
DIMENSIONS
 62
     2
  5
118
 10
70.159554
 20
81.78727
 30
0.0
 11
72.72966
 21
81.217735
 31
0.0
 12
72.247871
 22
80.184547
 32
0.0
 13
72.247871
 23
80.184547
 33
0.0
  0
SOLID
  8
DIMENSIONS
 62
     2
  5
119
 10
64.174416
 20
83.67437
 30
0.0
 11
61.544479
 21
83.559303
 31
0.0
 12
61.742439
 22
84.681984
 32
0.0
 13
61.742439
 23
84.681984
 33
0.0
  0
LINE
  8
SEVROMOUNTDIMS
 62
     2
  5
11A
 10
94.242905
 20
40.79158
 30
0.0
 11
107.811195
 21
29.162149
 31
0.0
  0
LINE
  8
SEVROMOUNTDIMS
 62
     2
  5
11B
 10
84.481293
 20
29.402512
 30
0.0
 11
98.049576
 21
17.773079
 31
0.0
  0
LINE
  8
SEVROMOUNTDIMS
 62
     2
  5
11C
 10
99.869057
 20
22.969162
 30
0.0
 11
96.531036
 21
19.074627
 31
0.0
  0
LINE
  8
SEVROMOUNTDIMS
 62
     2
  5
11D
 10
106.292656
 20
30.463697
 30
0.0
 11
102.954636
 21
26.56916
 31
0.0
  0
TEXT
  8
SEVROMOUNTDIMS
 62
     2
  5
11E
 10
96.685165
 20
23.769161
 30
0.0
 40
2.0
  1
15.0 mm
  7
STYLE1
 72
     1
 11
101.41185
 21
24.769161
 31
0.0
 73
     2
  0
SOLID
  8
SEVROMOUNTDIMS
 62
     2
  5
11F
 10
106.292656
 20
30.463697
 30
0.0
 11
105.052948
 21
28.14143
 31
0.0
 12
104.187378
 22
28.883312
 32
0.0
 13
104.187378
 23
28.883312
 33
0.0
  0
SOLID
  8
SEVROMOUNTDIMS
 62
     2
  5
120
 10
96.531036
 20
19.074627
 30
0.0
 11
97.770744
 21
21.396894
 31
0.0
 12
98.636314
 22
20.655012
 32
0.0
 13
98.636314
 23
20.655012
 33
0.0
  0
LINE
  8
SEVROMOUNTDIMS
 62
     2
  5
121
 10
94.242905
 20
40.79158
 30
0.0
 11
99.316582
 21
36.442924
 31
0.0
  0
LINE
  8
SEVROMOUNTDIMS
 62
     2
  5
122
 10
89.231949
 20
34.945194
 30
0.0
 11
94.305626
 21
30.59654
 31
0.0
  0
TEXT
  8
SEVROMOUNTDIMS
 62
     2
  5
123
 10
101.943016
 20
40.647129
 30
0.0
 40
2.0
  1
7.7 mm
  7
STYLE1
 11
101.143013
 21
41.647129
 31
0.0
 73
     2
  0
LINE
  8
SEVROMOUNTDIMS
 62
     2
  5
124
 10
97.798035
 20
37.744473
 30
0.0
 11
101.143013
 21
41.647129
 31
0.0
  0
LINE
  8
SEVROMOUNTDIMS
 62
     2
  5
125
 10
92.787079
 20
31.898087
 30
0.0
 11
89.442101
 21
27.995432
 31
0.0
  0
SOLID
  8
SEVROMOUNTDIMS
 62
     2
  5
126
 10
97.798035
 20
37.744473
 30
0.0
 11
99.037743
 21
40.066742
 31
0.0
 12
99.903305
 22
39.32486
 32
0.0
 13
99.903305
 23
39.32486
 33
0.0
  0
SOLID
  8
SEVROMOUNTDIMS
 62
     2
  5
127
 10
92.787079
 20
31.898087
 30
0.0
 11
91.547371
 21
29.575817
 31
0.0
 12
90.681808
 22
30.317699
 32
0.0
 13
90.681808
 23
30.317699
 33
0.0
  0
LINE
  8
SEVROMOUNTDIMS
 62
     2
  5
128
 10
82.366226
 20
29.239767
 30
0.0
 11
79.181549
 21
25.524147
 31
0.0
  0
LINE
  8
SEVROMOUNTDIMS
 62
     2
  5
129
 10
78.207138
 20
31.392584
 30
0.0
 11
75.720131
 21
28.49094
 31
0.0
  0
TEXT
  8
SEVROMOUNTDIMS
 62
     2
  5
12A
 10
64.216125
 20
32.354458
 30
0.0
 40
2.0
  1
4.6 mm
  7
STYLE1
 72
     2
 11
73.119019
 21
33.354458
 31
0.0
 73
     2
  0
LINE
  8
SEVROMOUNTDIMS
 62
     2
  5
12B
 10
77.021675
 20
30.009483
 30
0.0
 11
73.119019
 21
33.354458
 31
0.0
  0
LINE
  8
SEVROMOUNTDIMS
 62
     2
  5
12C
 10
80.483101
 20
27.04269
 30
0.0
 11
84.385757
 21
23.697716
 31
0.0
  0
SOLID
  8
SEVROMOUNTDIMS
 62
     2
  5
12D
 10
80.483101
 20
27.04269
 30
0.0
 11
82.805374
 21
25.802988
 31
0.0
 12
82.063492
 22
24.937418
 32
0.0
 13
82.063492
 23
24.937418
 33
0.0
  0
SOLID
  8
SEVROMOUNTDIMS
 62
     2
  5
12E
 10
77.021675
 20
30.009483
 30
0.0
 11
74.699402
 21
31.249186
 31
0.0
 12
75.441284
 22
32.114754
 32
0.0
 13
75.441284
 23
32.114754
 33
0.0
  0
LINE
  8
SERVOMOUNT
  6
ECW_3
 62
   116
  5
12F
 10
61.385132
 20
47.786381
 30
0.0
 11
72.281761
 21
60.499702
 31
0.0
  0
LINE
  8
SERVOMOUNT
  6
ECW_3
 62
   116
  5
130
 10
54.551682
 20
53.643349
 30
0.0
 11
65.448318
 21
66.356674
 31
0.0
  0
LINE
  8
SERVOMOUNT
  6
ECW_3
 62
   116
  5
131
 10
40.125534
 20
66.008072
 30
0.0
 11
51.022179
 21
78.721382
 31
0.0
  0
LINE
  8
SEVROMOUNTDIMS
 62
     2
  5
132
 10
82.366226
 20
29.239767
 30
0.0
 11
72.287941
 21
17.481243
 31
0.0
  0
LINE
  8
SEVROMOUNTDIMS
 62
     2
  5
133
 10
60.40897
 20
46.647472
 30
0.0
 11
51.028355
 21
35.702919
 31
0.0
  0
LINE
  8
SEVROMOUNTDIMS
 62
     2
  5
134
 10
60.859604
 20
29.910624
 30
0.0
 11
52.329903
 21
37.221462
 31
0.0
  0
LINE
  8
SEVROMOUNTDIMS
 62
     2
  5
135
 10
73.589493
 20
18.999786
 30
0.0
 11
65.059792
 21
26.310625
 31
0.0
  0
TEXT
  8
SEVROMOUNTDIMS
 62
     2
  5
136
 10
58.233009
 20
27.110624
 30
0.0
 40
2.0
  1
28.0 mm
  7
STYLE1
 72
     1
 11
62.959698
 21
28.110624
 31
0.0
 73
     2
  0
SOLID
  8
SEVROMOUNTDIMS
 62
     2
  5
137
 10
73.589493
 20
18.999786
 30
0.0
 11
71.267227
 21
20.239492
 31
0.0
 12
72.009109
 22
21.105061
 32
0.0
 13
72.009109
 23
21.105061
 33
0.0
  0
SOLID
  8
SEVROMOUNTDIMS
 62
     2
  5
138
 10
52.329903
 20
37.221462
 30
0.0
 11
54.652172
 21
35.981758
 31
0.0
 12
53.91029
 22
35.116188
 32
0.0
 13
53.91029
 23
35.116188
 33
0.0
  0
LINE
  8
SEVROMOUNTDIMS
 62
     2
  5
139
 10
82.366219
 20
29.239767
 30
0.0
 11
67.195442
 21
11.539736
 31
0.0
  0
LINE
  8
SEVROMOUNTDIMS
 62
     2
  5
13A
 10
53.57552
 20
52.504444
 30
0.0
 11
39.102413
 21
35.618397
 31
0.0
  0
LINE
  8
SEVROMOUNTDIMS
 62
     2
  5
13B
 10
52.350384
 20
26.897608
 30
0.0
 11
40.403961
 21
37.13694
 31
0.0
  0
LINE
  8
SEVROMOUNTDIMS
 62
     2
  5
13C
 10
68.496994
 20
13.058277
 30
0.0
 11
56.550571
 21
23.297609
 31
0.0
  0
TEXT
  8
SEVROMOUNTDIMS
 62
     2
  5
13D
 10
49.723789
 20
24.097609
 30
0.0
 40
2.0
  1
37.0 mm
  7
STYLE1
 72
     1
 11
54.450478
 21
25.097609
 31
0.0
 73
     2
  0
SOLID
  8
SEVROMOUNTDIMS
 62
     2
  5
13E
 10
68.496994
 20
13.058277
 30
0.0
 11
66.174728
 21
14.297983
 31
0.0
 12
66.916611
 22
15.163552
 32
0.0
 13
66.916611
 23
15.163552
 33
0.0
  0
SOLID
  8
SEVROMOUNTDIMS
 62
     2
  5
13F
 10
40.403961
 20
37.13694
 30
0.0
 11
42.726231
 21
35.897232
 31
0.0
 12
41.984344
 22
35.031666
 32
0.0
 13
41.984344
 23
35.031666
 33
0.0
  0
LINE
  8
SEVROMOUNTDIMS
 62
     2
  5
140
 10
82.366219
 20
29.239767
 30
0.0
 11
64.104797
 21
7.93382
 31
0.0
  0
LINE
  8
SEVROMOUNTDIMS
 62
     2
  5
141
 10
39.847034
 20
65.683136
 30
0.0
 11
21.585621
 21
44.377193
 31
0.0
  0
LINE
  8
SEVROMOUNTDIMS
 62
     2
  5
142
 10
42.046665
 20
29.474049
 30
0.0
 11
22.887169
 21
45.895737
 31
0.0
  0
LINE
  8
SEVROMOUNTDIMS
 62
     2
  5
143
 10
65.406349
 20
9.452362
 30
0.0
 11
46.246853
 21
25.87405
 31
0.0
  0
TEXT
  8
SEVROMOUNTDIMS
 62
     2
  5
144
 10
39.420071
 20
26.674049
 30
0.0
 40
2.0
  1
56.0 mm
  7
STYLE1
 72
     1
 11
44.146759
 21
27.674049
 31
0.0
 73
     2
  0
SOLID
  8
SEVROMOUNTDIMS
 62
     2
  5
145
 10
65.406349
 20
9.452362
 30
0.0
 11
63.08408
 21
10.692068
 31
0.0
 12
63.825966
 22
11.557637
 32
0.0
 13
63.825966
 23
11.557637
 33
0.0
  0
SOLID
  8
SEVROMOUNTDIMS
 62
     2
  5
146
 10
22.887169
 20
45.895737
 30
0.0
 11
25.209436
 21
44.656029
 31
0.0
 12
24.467554
 22
43.790462
 32
0.0
 13
24.467554
 23
43.790462
 33
0.0
  0
LINE
  8
SEVROMOUNTDIMS
 62
     2
  5
147
 10
82.366226
 20
29.239767
 30
0.0
 11
58.05595
 21
0.876492
 31
0.0
  0
LINE
  8
SEVROMOUNTDIMS
 62
     2
  5
148
 10
28.943895
 20
73.61628
 30
0.0
 11
5.331295
 21
46.066994
 31
0.0
  0
LINE
  8
SEVROMOUNTDIMS
 62
     2
  5
149
 10
30.895073
 20
26.790287
 30
0.0
 11
6.632843
 21
47.585537
 31
0.0
  0
LINE
  8
SEVROMOUNTDIMS
 62
     2
  5
14A
 10
59.357498
 20
2.395035
 30
0.0
 11
35.095264
 21
23.190289
 31
0.0
  0
TEXT
  8
SEVROMOUNTDIMS
 62
     2
  5
14B
 10
28.268482
 20
23.990286
 30
0.0
 40
2.0
  1
69.4 mm
  7
STYLE1
 72
     1
 11
32.995171
 21
24.990286
 31
0.0
 73
     2
  0
SOLID
  8
SEVROMOUNTDIMS
 62
     2
  5
14C
 10
59.357498
 20
2.395035
 30
0.0
 11
57.035229
 21
3.63474
 31
0.0
 12
57.777111
 22
4.500309
 32
0.0
 13
57.777111
 23
4.500309
 33
0.0
  0
SOLID
  8
SEVROMOUNTDIMS
 62
     2
  5
14D
 10
6.632843
 20
47.585537
 30
0.0
 11
8.955112
 21
46.345833
 31
0.0
 12
8.213229
 22
45.480263
 32
0.0
 13
8.213229
 23
45.480263
 33
0.0
  0
LINE
  8
SEVROMOUNTDIMS
 62
     2
  5
14E
 10
26.017416
 20
79.512138
 30
0.0
 11
22.08819
 21
82.879921
 31
0.0
  0
LINE
  8
SEVROMOUNTDIMS
 62
     2
  5
14F
 10
26.993572
 20
80.651047
 30
0.0
 11
23.064358
 21
84.018829
 31
0.0
  0
TEXT
  8
SEVROMOUNTDIMS
 62
     2
  5
150
 10
11.358834
 20
76.675728
 30
0.0
 40
2.0
  1
1.5 mm
  7
STYLE1
 72
     2
 11
20.261728
 21
77.675728
 31
0.0
 73
     2
  0
LINE
  8
SEVROMOUNTDIMS
 62
     2
  5
151
 10
23.606728
 20
81.578369
 30
0.0
 11
20.261728
 21
77.675728
 31
0.0
  0
LINE
  8
SEVROMOUNTDIMS
 62
     2
  5
152
 10
24.582893
 20
82.71727
 30
0.0
 11
27.927893
 21
86.619911
 31
0.0
  0
SOLID
  8
SEVROMOUNTDIMS
 62
     2
  5
153
 10
23.606728
 20
81.578369
 30
0.0
 11
22.367012
 21
79.256104
 31
0.0
 12
21.501446
 22
79.997993
 32
0.0
 13
21.501446
 23
79.997993
 33
0.0
  0
SOLID
  8
SEVROMOUNTDIMS
 62
     2
  5
154
 10
24.582893
 20
82.71727
 30
0.0
 11
25.822611
 21
85.039536
 31
0.0
 12
26.688175
 22
84.297646
 32
0.0
 13
26.688175
 23
84.297646
 33
0.0
  0
LINE
  8
SERVOMOUNT
  6
ECW_3
 62
   116
  5
155
 10
59.107319
 20
49.738705
 30
0.0
 11
70.003944
 21
62.452023
 31
0.0
  0
LINE
  8
SERVOMOUNT
  6
ECW_3
 62
   116
  5
156
 10
42.403343
 20
64.05574
 30
0.0
 11
53.299988
 21
76.769058
 31
0.0
  0
LINE
  8
SEVROMOUNTDIMS
 62
     2
  5
157
 10
94.080154
 20
42.906651
 30
0.0
 11
104.759918
 21
55.366928
 31
0.0
  0
LINE
  8
SEVROMOUNTDIMS
 62
     2
  5
158
 10
70.980103
 20
63.590931
 30
0.0
 11
81.222504
 21
75.540924
 31
0.0
  0
LINE
  8
SEVROMOUNTDIMS
 62
     2
  5
159
 10
89.589554
 20
65.73539
 30
0.0
 11
79.920952
 21
74.022385
 31
0.0
  0
LINE
  8
SEVROMOUNTDIMS
 62
     2
  5
15A
 10
103.458366
 20
53.848385
 30
0.0
 11
93.789749
 21
62.135391
 31
0.0
  0
TEXT
  8
SEVROMOUNTDIMS
 62
     2
  5
15B
 10
86.962975
 20
62.935387
 30
0.0
 40
2.0
  1
31.0 mm
  7
STYLE1
 72
     1
 11
91.689659
 21
63.935387
 31
0.0
 73
     2
  0
SOLID
  8
SEVROMOUNTDIMS
 62
     2
  5
15C
 10
103.458366
 20
53.848385
 30
0.0
 11
101.136101
 21
55.088089
 31
0.0
 12
101.877983
 22
55.953659
 32
0.0
 13
101.877983
 23
55.953659
 33
0.0
  0
SOLID
  8
SEVROMOUNTDIMS
 62
     2
  5
15D
 10
79.920952
 20
74.022385
 30
0.0
 11
82.243217
 21
72.782677
 31
0.0
 12
81.501335
 22
71.917107
 32
0.0
 13
81.501335
 23
71.917107
 33
0.0
  0
LINE
  8
SEVROMOUNTDIMS
 62
     2
  5
15E
 10
94.080154
 20
42.906651
 30
0.0
 11
107.441483
 21
58.495571
 31
0.0
  0
LINE
  8
SEVROMOUNTDIMS
 62
     2
  5
15F
 10
53.838787
 20
77.39769
 30
0.0
 11
67.200111
 21
92.986603
 31
0.0
  0
LINE
  8
SEVROMOUNTDIMS
 62
     2
  5
160
 10
83.919144
 20
76.022552
 30
0.0
 11
65.89856
 21
91.468063
 31
0.0
  0
LINE
  8
SEVROMOUNTDIMS
 62
     2
  5
161
 10
106.139931
 20
56.977028
 30
0.0
 11
88.119339
 21
72.422546
 31
0.0
  0
TEXT
  8
SEVROMOUNTDIMS
 62
     2
  5
162
 10
81.292557
 20
73.222549
 30
0.0
 40
2.0
  1
53.0 mm
  7
STYLE1
 72
     1
 11
86.019241
 21
74.222549
 31
0.0
 73
     2
  0
SOLID
  8
SEVROMOUNTDIMS
 62
     2
  5
163
 10
106.139931
 20
56.977028
 30
0.0
 11
103.817665
 21
58.216732
 31
0.0
 12
104.559547
 22
59.082302
 32
0.0
 13
104.559547
 23
59.082302
 33
0.0
  0
SOLID
  8
SEVROMOUNTDIMS
 62
     2
  5
164
 10
65.89856
 20
91.468063
 30
0.0
 11
68.220825
 21
90.228355
 31
0.0
 12
67.478943
 22
89.362785
 32
0.0
 13
67.478943
 23
89.362785
 33
0.0
  0
LINE
  8
SEVROMOUNTDIMS
 62
     2
  5
165
 10
94.080154
 20
42.906651
 30
0.0
 11
111.177551
 21
62.854511
 31
0.0
  0
LINE
  8
SEVROMOUNTDIMS
 62
     2
  5
166
 10
37.894096
 20
91.06395
 30
0.0
 11
54.991486
 21
111.011803
 31
0.0
  0
LINE
  8
SEVROMOUNTDIMS
 62
     2
  5
167
 10
79.682877
 20
87.214615
 30
0.0
 11
53.689938
 21
109.493263
 31
0.0
  0
LINE
  8
SEVROMOUNTDIMS
 62
     2
  5
168
 10
109.875999
 20
61.335968
 30
0.0
 11
83.883072
 21
83.614609
 31
0.0
  0
TEXT
  8
SEVROMOUNTDIMS
 62
     2
  5
169
 10
77.056282
 20
84.414612
 30
0.0
 40
2.0
  1
74.0 mm
  7
STYLE1
 72
     1
 11
81.782967
 21
85.414612
 31
0.0
 73
     2
  0
SOLID
  8
SEVROMOUNTDIMS
 62
     2
  5
16A
 10
109.875999
 20
61.335968
 30
0.0
 11
107.553734
 21
62.575672
 31
0.0
 12
108.295616
 22
63.441242
 32
0.0
 13
108.295616
 23
63.441242
 33
0.0
  0
SOLID
  8
SEVROMOUNTDIMS
 62
     2
  5
16B
 10
53.689938
 20
109.493263
 30
0.0
 11
56.012207
 21
108.253555
 31
0.0
 12
55.270325
 22
107.387985
 32
0.0
 13
55.270325
 23
107.387985
 33
0.0
  0
LINE
  8
CONSTRUCTION
 62
   142
  5
16C
 10
59.999996
 20
59.999996
 30
0.0
 11
89.999992
 21
59.999989
 31
0.0
  0
TEXT
  8
CONSTRUCTION
 62
   142
  5
16D
 10
19.293985
 20
104.948586
 30
0.0
 40
2.34872
  1
Material Blank
 50
359.999955
  7
STYLE1
  0
TEXT
  8
CONSTRUCTION
 62
   142
  5
16E
 10
19.293982
 20
101.425507
 30
0.0
 40
2.34872
  1
80 x 80 mm
 50
359.999955
  7
STYLE1
  0
TEXT
  8
CONSTRUCTION
 62
   142
  5
16F
 10
24.57155
 20
94.274765
 30
0.0
 40
2.348718
  1
Base Plate
 50
359.999955
  7
STYLE1
  0
TEXT
  8
CONSTRUCTION
 62
   142
  5
170
 10
24.571547
 20
90.751686
 30
0.0
 40
2.348718
  1
70 x 60 mm
 50
359.999955
  7
STYLE1
  0
CIRCLE
  8
TRACK1PLOTTING
 62
     1
  5
171
 10
85.770523
 20
82.088005
 30
0.0
 40
0.125
  0
CIRCLE
  8
TRACK1PLOTTING
 62
     1
  5
172
 10
84.631615
 20
38.888153
 30
0.0
 40
0.125
  0
CIRCLE
  8
TRACK1PLOTTING
 62
     1
  5
173
 10
34.229477
 20
37.911987
 30
0.0
 40
0.125
  0
CIRCLE
  8
TRACK1PLOTTING
 62
     1
  5
174
 10
35.368382
 20
81.111855
 30
0.0
 40
0.125
  0
POLYLINE
  8
TRACK1PLOTTING
 62
     1
  5
175
 66
     1
 10
0.0
 20
0.0
 30
0.0
 70
     1
  0
VERTEX
  8
TRACK1PLOTTING
 62
     1
  5
176
 10
95.0
 20
30.0
 30
0.0
  0
VERTEX
  8
TRACK1PLOTTING
 62
     1
  5
177
 10
95.0
 20
90.0
 30
0.0
  0
VERTEX
  8
TRACK1PLOTTING
 62
     1
  5
178
 10
25.0
 20
90.0
 30
0.0
  0
VERTEX
  8
TRACK1PLOTTING
 62
     1
  5
179
 10
25.0
 20
29.999998
 30
0.0
  0
SEQEND
  8
0
  5
17A
  0
CIRCLE
  8
TRACK1PLOTTING
 62
     1
  5
17B
 10
59.999996
 20
59.999996
 30
0.0
 40
0.125
  0
CIRCLE
  8
TRACK2PLOTTING
 62
    20
  5
17C
 10
60.0
 20
59.999996
 30
0.0
 40
27.5
  0
CIRCLE
  8
TRACK2PLOTTING
 62
    20
  5
17D
 10
60.0
 20
59.999996
 30
0.0
 40
2.0
  0
CIRCLE
  8
TRACK2
 62
    20
  5
17E
 10
60.0
 20
59.999996
 30
0.0
 40
2.0
  0
CIRCLE
  8
TRACK2PLOTTING
 62
    20
  5
17F
 10
60.0
 20
59.999996
 30
0.0
 40
2.0
  0
CIRCLE
  8
TRACK2PLOTTING
 62
    20
  5
180
 10
60.0
 20
59.999996
 30
0.0
 40
2.0
  0
CIRCLE
  8
TRACK2PLOTTING
 62
    20
  5
181
 10
60.0
 20
59.999996
 30
0.0
 40
2.0
  0
CIRCLE
  8
TRACK2PLOTTING
 62
    20
  5
182
 10
60.0
 20
59.999996
 30
0.0
 40
27.5
  0
CIRCLE
  8
TRACK2PLOTTING
 62
    20
  5
183
 10
60.0
 20
59.999996
 30
0.0
 40
27.5
  0
CIRCLE
  8
TRACK2PLOTTING
 62
    20
  5
184
 10
60.0
 20
59.999996
 30
0.0
 40
27.5
  0
CIRCLE
  8
TRACK2PLOTTING
 62
    20
  5
185
 10
60.0
 20
59.999996
 30
0.0
 40
27.5
  0
LINE
  8
TRACK1PLOTTING
 62
     1
  5
186
 10
38.849998
 20
60.0
 30
0.0
 11
37.208214
 21
61.699997
 31
0.0
  0
LINE
  8
TRACK1PLOTTING
 62
     1
  5
187
 10
45.150002
 20
60.0
 30
0.0
 11
46.96035
 21
61.700001
 31
0.0
  0
LINE
  8
TRACK1PLOTTING
 62
     1
  5
188
 10
25.0
 20
60.0
 30
0.0
 11
28.999998
 21
60.0
 31
0.0
  0
LINE
  8
TRACK1PLOTTING
 62
     1
  5
189
 10
25.0
 20
61.699997
 30
0.0
 11
28.999998
 21
61.699997
 31
0.0
  0
LINE
  8
TRACK1PLOTTING
 62
     1
  5
18A
 10
28.999998
 20
61.699997
 30
0.0
 11
37.208214
 21
61.699997
 31
0.0
  0
LINE
  8
TRACK1PLOTTING
 62
     1
  5
18B
 10
28.999998
 20
60.0
 30
0.0
 11
37.150002
 21
60.0
 31
0.0
  0
LINE
  8
TRACK1PLOTTING
 62
     1
  5
18C
 10
81.150002
 20
59.999992
 30
0.0
 11
82.791786
 21
58.299995
 31
0.0
  0
LINE
  8
TRACK1PLOTTING
 62
     1
  5
18D
 10
74.849991
 20
59.999992
 30
0.0
 11
73.039642
 21
58.299992
 31
0.0
  0
LINE
  8
TRACK1PLOTTING
 62
     1
  5
18E
 10
94.999992
 20
59.999989
 30
0.0
 11
90.999992
 21
59.999989
 31
0.0
  0
LINE
  8
TRACK1PLOTTING
 62
     1
  5
18F
 10
94.999992
 20
58.299992
 30
0.0
 11
90.999992
 21
58.299992
 31
0.0
  0
LINE
  8
TRACK1PLOTTING
 62
     1
  5
190
 10
90.999992
 20
58.299992
 30
0.0
 11
82.791786
 21
58.299995
 31
0.0
  0
LINE
  8
TRACK1PLOTTING
 62
     1
  5
191
 10
90.999992
 20
59.999989
 30
0.0
 11
82.849998
 21
59.999992
 31
0.0
  0
LINE
  8
TRACK1PLOTTING
 62
     1
  5
192
 10
94.999992
 20
59.999989
 30
0.0
 11
94.999992
 21
58.299992
 31
0.0
  0
LINE
  8
TRACK1PLOTTING
 62
     1
  5
193
 10
25.0
 20
61.699997
 30
0.0
 11
25.0
 21
60.0
 31
0.0
  0
LINE
  8
TRACK1PLOTTING
 62
     1
  5
194
 10
66.849998
 20
60.0
 30
0.0
 11
73.149994
 21
60.000004
 31
0.0
  0
LINE
  8
TRACK1PLOTTING
 62
     1
  5
195
 10
53.364304
 20
61.700001
 30
0.0
 11
46.96035
 21
61.700001
 31
0.0
  0
LINE
  8
TRACK1PLOTTING
 62
     1
  5
196
 10
73.03965
 20
58.300003
 30
0.0
 11
66.635696
 21
58.300003
 31
0.0
  0
LINE
  8
TRACK1PLOTTING
 62
     1
  5
197
 10
53.150002
 20
60.0
 30
0.0
 11
46.849998
 21
60.000004
 31
0.0
  0
ARC
  8
TRACK1PLOTTING
 62
     1
  5
198
 10
59.999996
 20
59.999996
 30
0.0
 40
6.85
 50
0.00001
 51
165.630485
  0
ARC
  8
TRACK1PLOTTING
 62
     1
  5
199
 10
59.999996
 20
59.999996
 30
0.0
 40
5.15
 50
0.00001
 51
160.725371
  0
LINE
  8
TRACK1PLOTTING
 62
     1
  5
19A
 10
55.138672
 20
61.699993
 30
0.0
 11
53.150002
 21
60.0
 31
0.0
  0
LINE
  8
TRACK1PLOTTING
 62
     1
  5
19B
 10
65.149994
 20
59.999996
 30
0.0
 11
66.635696
 21
58.300003
 31
0.0
  0
ARC
  8
TRACK1PLOTTING
 62
     1
  5
19C
 10
60.0
 20
60.0
 30
0.0
 40
13.150001
 50
179.999991
 51
260.00001
  0
ARC
  8
TRACK1PLOTTING
 62
     1
  5
19D
 10
60.0
 20
60.0
 30
0.0
 40
14.85
 50
180.000005
 51
260.000037
  0
ARC
  8
TRACK1PLOTTING
 62
     1
  5
19E
 10
60.0
 20
60.0
 30
0.0
 40
21.15
 50
179.999991
 51
260.00003
  0
ARC
  8
TRACK1PLOTTING
 62
     1
  5
19F
 10
60.0
 20
60.0
 30
0.0
 40
22.850002
 50
179.999991
 51
260.00003
  0
LINE
  8
TRACK1PLOTTING
 62
     1
  5
1A0
 10
57.716526
 20
47.049778
 30
0.0
 11
57.421333
 21
45.375603
 31
0.0
  0
LINE
  8
TRACK1PLOTTING
 62
     1
  5
1A1
 10
56.327351
 20
39.171314
 30
0.0
 11
56.03215
 21
37.497139
 31
0.0
  0
ARC
  8
TRACK1PLOTTING
 62
     1
  5
1A2
 10
59.999996
 20
59.999996
 30
0.0
 40
13.150001
 50
359.999983
 51
440.000001
  0
ARC
  8
TRACK1PLOTTING
 62
     1
  5
1A3
 10
59.999996
 20
59.999996
 30
0.0
 40
14.85
 50
0.00001
 51
80.000042
  0
ARC
  8
TRACK1PLOTTING
 62
     1
  5
1A4
 10
59.999996
 20
59.999996
 30
0.0
 40
21.15
 50
359.999983
 51
440.000021
  0
ARC
  8
TRACK1PLOTTING
 62
     1
  5
1A5
 10
59.999996
 20
59.999996
 30
0.0
 40
22.850002
 50
359.999983
 51
440.000021
  0
LINE
  8
TRACK1PLOTTING
 62
     1
  5
1A6
 10
62.28347
 20
72.950218
 30
0.0
 11
62.578663
 21
74.62439
 31
0.0
  0
LINE
  8
TRACK1PLOTTING
 62
     1
  5
1A7
 10
63.672642
 20
80.828682
 30
0.0
 11
63.967842
 21
82.502853
 31
0.0
  0
LINE
  8
TRACK1PLOTTING
 62
     1
  5
1A8
 10
38.849991
 20
60.0
 30
0.0
 11
37.208206
 21
61.699997
 31
0.0
  0
LINE
  8
TRACK1PLOTTING
 62
     1
  5
1A9
 10
45.149994
 20
60.0
 30
0.0
 11
46.960342
 21
61.700001
 31
0.0
  0
LINE
  8
TRACK1PLOTTING
 62
     1
  5
1AA
 10
25.0
 20
60.0
 30
0.0
 11
28.999998
 21
60.0
 31
0.0
  0
LINE
  8
TRACK1PLOTTING
 62
     1
  5
1AB
 10
25.0
 20
61.699997
 30
0.0
 11
28.999998
 21
61.699997
 31
0.0
  0
LINE
  8
TRACK1PLOTTING
 62
     1
  5
1AC
 10
28.999998
 20
61.699997
 30
0.0
 11
37.208206
 21
61.699997
 31
0.0
  0
LINE
  8
TRACK1PLOTTING
 62
     1
  5
1AD
 10
28.999998
 20
60.0
 30
0.0
 11
37.149994
 21
60.0
 31
0.0
  0
LINE
  8
TRACK1PLOTTING
 62
     1
  5
1AE
 10
81.149994
 20
59.999992
 30
0.0
 11
82.791779
 21
58.299995
 31
0.0
  0
LINE
  8
TRACK1PLOTTING
 62
     1
  5
1AF
 10
74.849991
 20
59.999992
 30
0.0
 11
73.039642
 21
58.299992
 31
0.0
  0
LINE
  8
TRACK1PLOTTING
 62
     1
  5
1B0
 10
94.999992
 20
59.999989
 30
0.0
 11
90.999992
 21
59.999989
 31
0.0
  0
LINE
  8
TRACK1PLOTTING
 62
     1
  5
1B1
 10
94.999992
 20
58.299992
 30
0.0
 11
90.999992
 21
58.299992
 31
0.0
  0
LINE
  8
TRACK1PLOTTING
 62
     1
  5
1B2
 10
90.999992
 20
58.299992
 30
0.0
 11
82.791779
 21
58.299995
 31
0.0
  0
LINE
  8
TRACK1PLOTTING
 62
     1
  5
1B3
 10
90.999992
 20
59.999989
 30
0.0
 11
82.849991
 21
59.999992
 31
0.0
  0
LINE
  8
TRACK1PLOTTING
 62
     1
  5
1B4
 10
94.999992
 20
59.999989
 30
0.0
 11
94.999992
 21
58.299992
 31
0.0
  0
LINE
  8
TRACK1PLOTTING
 62
     1
  5
1B5
 10
25.0
 20
61.699997
 30
0.0
 11
25.0
 21
60.0
 31
0.0
  0
LINE
  8
TRACK1PLOTTING
 62
     1
  5
1B6
 10
66.849991
 20
60.0
 30
0.0
 11
73.149994
 21
60.000004
 31
0.0
  0
LINE
  8
TRACK1PLOTTING
 62
     1
  5
1B7
 10
53.364304
 20
61.700001
 30
0.0
 11
46.960342
 21
61.700001
 31
0.0
  0
LINE
  8
TRACK1PLOTTING
 62
     1
  5
1B8
 10
73.039642
 20
58.300003
 30
0.0
 11
66.635696
 21
58.300003
 31
0.0
  0
LINE
  8
TRACK1PLOTTING
 62
     1
  5
1B9
 10
53.149994
 20
60.0
 30
0.0
 11
46.849991
 21
60.000004
 31
0.0
  0
ARC
  8
TRACK1PLOTTING
 62
     1
  5
1BA
 10
59.999992
 20
59.999996
 30
0.0
 40
6.85
 50
0.00001
 51
165.630485
  0
ARC
  8
TRACK1PLOTTING
 62
     1
  5
1BB
 10
59.999992
 20
59.999996
 30
0.0
 40
5.15
 50
0.00001
 51
160.725371
  0
LINE
  8
TRACK1PLOTTING
 62
     1
  5
1BC
 10
55.138672
 20
61.699993
 30
0.0
 11
53.149994
 21
60.0
 31
0.0
  0
LINE
  8
TRACK1PLOTTING
 62
     1
  5
1BD
 10
65.149994
 20
59.999996
 30
0.0
 11
66.635696
 21
58.300003
 31
0.0
  0
ARC
  8
TRACK1PLOTTING
 62
     1
  5
1BE
 10
59.999996
 20
60.0
 30
0.0
 40
13.150001
 50
179.999991
 51
260.00001
  0
ARC
  8
TRACK1PLOTTING
 62
     1
  5
1BF
 10
59.999996
 20
60.0
 30
0.0
 40
14.85
 50
180.000005
 51
260.000037
  0
ARC
  8
TRACK1PLOTTING
 62
     1
  5
1C0
 10
59.999996
 20
60.0
 30
0.0
 40
21.15
 50
179.999991
 51
260.00003
  0
ARC
  8
TRACK1PLOTTING
 62
     1
  5
1C1
 10
59.999996
 20
60.0
 30
0.0
 40
22.850002
 50
179.999991
 51
260.00003
  0
LINE
  8
TRACK1PLOTTING
 62
     1
  5
1C2
 10
57.716522
 20
47.049778
 30
0.0
 11
57.421329
 21
45.375603
 31
0.0
  0
LINE
  8
TRACK1PLOTTING
 62
     1
  5
1C3
 10
56.327347
 20
39.171314
 30
0.0
 11
56.032146
 21
37.497139
 31
0.0
  0
ARC
  8
TRACK1PLOTTING
 62
     1
  5
1C4
 10
59.999992
 20
59.999996
 30
0.0
 40
13.150001
 50
359.999983
 51
440.000001
  0
ARC
  8
TRACK1PLOTTING
 62
     1
  5
1C5
 10
59.999992
 20
59.999996
 30
0.0
 40
14.85
 50
0.00001
 51
80.000042
  0
ARC
  8
TRACK1PLOTTING
 62
     1
  5
1C6
 10
59.999992
 20
59.999996
 30
0.0
 40
21.15
 50
359.999983
 51
440.000021
  0
ARC
  8
TRACK1PLOTTING
 62
     1
  5
1C7
 10
59.999992
 20
59.999996
 30
0.0
 40
22.850002
 50
359.999983
 51
440.000021
  0
LINE
  8
TRACK1PLOTTING
 62
     1
  5
1C8
 10
62.283466
 20
72.950218
 30
0.0
 11
62.578659
 21
74.62439
 31
0.0
  0
LINE
  8
TRACK1PLOTTING
 62
     1
  5
1C9
 10
63.672638
 20
80.828682
 30
0.0
 11
63.967838
 21
82.502853
 31
0.0
  0
LINE
  8
CONSTRUCTION
 62
   142
  5
1CA
 10
27.5
 20
50.849998
 30
0.0
 11
32.5
 21
50.849998
 31
0.0
  0
LINE
  8
CONSTRUCTION
 62
   142
  5
1CB
 10
29.999998
 20
48.349998
 30
0.0
 11
29.999998
 21
53.349998
 31
0.0
  0
CIRCLE
  8
CONSTRUCTION
 62
   142
  5
1CC
 10
29.999998
 20
50.849998
 30
0.0
 40
2.5
  0
CIRCLE
  8
TRACK1
 62
     1
  5
1CD
 10
29.999998
 20
50.849998
 30
0.0
 40
0.125
  0
CIRCLE
  8
TRACK1PLOTTING
 62
     1
  5
1CE
 10
29.999998
 20
50.849998
 30
0.0
 40
0.125
  0
LINE
  8
CONSTRUCTION
 62
   142
  5
1CF
 10
27.500008
 20
70.850006
 30
0.0
 11
32.500008
 21
70.850006
 31
0.0
  0
LINE
  8
CONSTRUCTION
 62
   142
  5
1D0
 10
30.000006
 20
73.350006
 30
0.0
 11
30.000006
 21
68.350006
 31
0.0
  0
CIRCLE
  8
CONSTRUCTION
 62
   142
  5
1D1
 10
30.000006
 20
70.850006
 30
0.0
 40
2.5
  0
CIRCLE
  8
TRACK1
 62
     1
  5
1D2
 10
30.000006
 20
70.850006
 30
0.0
 40
0.125
  0
CIRCLE
  8
TRACK1PLOTTING
 62
     1
  5
1D3
 10
30.000006
 20
70.850006
 30
0.0
 40
0.125
  0
LINE
  8
CONSTRUCTION
 62
   142
  5
1D4
 10
92.500015
 20
49.150032
 30
0.0
 11
87.500015
 21
49.150024
 31
0.0
  0
LINE
  8
CONSTRUCTION
 62
   142
  5
1D5
 10
90.000015
 20
46.650028
 30
0.0
 11
90.000008
 21
51.650028
 31
0.0
  0
CIRCLE
  8
CONSTRUCTION
 62
   142
  5
1D6
 10
90.000015
 20
49.150028
 30
0.0
 40
2.5
  0
CIRCLE
  8
TRACK1
 62
     1
  5
1D7
 10
90.000015
 20
49.150028
 30
0.0
 40
0.125
  0
CIRCLE
  8
TRACK1PLOTTING
 62
     1
  5
1D8
 10
90.000015
 20
49.150028
 30
0.0
 40
0.125
  0
LINE
  8
CONSTRUCTION
 62
   142
  5
1D9
 10
92.499985
 20
69.150032
 30
0.0
 11
87.499985
 21
69.150032
 31
0.0
  0
LINE
  8
CONSTRUCTION
 62
   142
  5
1DA
 10
89.999985
 20
71.650032
 30
0.0
 11
89.999992
 21
66.650032
 31
0.0
  0
CIRCLE
  8
CONSTRUCTION
 62
   142
  5
1DB
 10
89.999985
 20
69.150032
 30
0.0
 40
2.5
  0
CIRCLE
  8
TRACK1
 62
     1
  5
1DC
 10
89.999985
 20
69.150032
 30
0.0
 40
0.125
  0
CIRCLE
  8
TRACK1PLOTTING
 62
     1
  5
1DD
 10
89.999985
 20
69.150032
 30
0.0
 40
0.125
  0
LINE
  8
CONSTRUCTION
 62
   142
  5
1DE
 10
93.101822
 20
31.626938
 30
0.0
 11
26.138901
 21
89.023842
 31
0.0
  0
LINE
  8
CONSTRUCTION
 62
   142
  5
1DF
 10
95.0
 20
90.0
 30
0.0
 11
25.0
 21
29.999998
 31
0.0
  0
LINE
  8
TRACK2
 62
    20
  5
1E0
 10
71.388229
 20
53.425003
 30
0.0
 11
73.625931
 21
54.096062
 31
0.0
  0
LINE
  8
TRACK2
 62
    20
  5
1E1
 10
73.625931
 20
54.096062
 30
0.0
 11
79.10717
 21
50.931465
 31
0.0
  0
LINE
  8
TRACK2
 62
    20
  5
1E2
 10
79.10717
 20
50.931465
 30
0.0
 11
79.788681
 21
48.575001
 31
0.0
  0
LINE
  8
TRACK2
 62
    20
  5
1E3
 10
72.860474
 20
52.575001
 30
0.0
 11
78.316437
 21
49.424999
 31
0.0
  0
ARC
  8
TRACK2
 62
    20
  5
1E4
 10
60.0
 20
60.000008
 30
0.0
 40
13.150001
 50
245.00006
 51
329.999989
  0
ARC
  8
TRACK2
 62
    20
  5
1E5
 10
60.0
 20
60.000008
 30
0.0
 40
14.850002
 50
245.00006
 51
329.999996
  0
ARC
  8
TRACK2
 62
    20
  5
1E6
 10
60.0
 20
60.000008
 30
0.0
 40
21.15
 50
245.000033
 51
329.999996
  0
ARC
  8
TRACK2
 62
    20
  5
1E7
 10
60.0
 20
60.000008
 30
0.0
 40
22.849998
 50
245.000033
 51
329.999996
  0
LINE
  8
TRACK2
 62
    20
  5
1E8
 10
54.442585
 20
48.08205
 30
0.0
 11
53.724133
 21
46.541325
 31
0.0
  0
LINE
  8
TRACK2
 62
    20
  5
1E9
 10
51.061634
 20
40.831589
 30
0.0
 11
50.343182
 21
39.290867
 31
0.0
  0
LINE
  8
TRACK2
 62
    20
  5
1EA
 10
48.611771
 20
66.574997
 30
0.0
 11
46.374069
 21
65.903938
 31
0.0
  0
LINE
  8
TRACK2
 62
    20
  5
1EB
 10
46.374069
 20
65.903938
 30
0.0
 11
40.89283
 21
69.068542
 31
0.0
  0
LINE
  8
TRACK2
 62
    20
  5
1EC
 10
40.89283
 20
69.068542
 30
0.0
 11
40.211319
 21
71.425003
 31
0.0
  0
LINE
  8
TRACK2
 62
    20
  5
1ED
 10
47.139526
 20
67.424995
 30
0.0
 11
41.683563
 21
70.575005
 31
0.0
  0
ARC
  8
TRACK2
 62
    20
  5
1EE
 10
60.000004
 20
60.000004
 30
0.0
 40
13.150001
 50
65.000062
 51
149.999991
  0
ARC
  8
TRACK2
 62
    20
  5
1EF
 10
60.000004
 20
60.000004
 30
0.0
 40
14.850002
 50
65.000062
 51
149.999997
  0
ARC
  8
TRACK2
 62
    20
  5
1F0
 10
60.000004
 20
60.000004
 30
0.0
 40
21.15
 50
65.000035
 51
149.999997
  0
ARC
  8
TRACK2
 62
    20
  5
1F1
 10
60.000004
 20
60.000004
 30
0.0
 40
22.849998
 50
65.000035
 51
149.999997
  0
LINE
  8
TRACK2
 62
    20
  5
1F2
 10
65.557426
 20
71.917946
 30
0.0
 11
66.275871
 21
73.458672
 31
0.0
  0
LINE
  8
TRACK2
 62
    20
  5
1F3
 10
68.93837
 20
79.168411
 30
0.0
 11
69.656815
 21
80.709129
 31
0.0
  0
LINE
  8
TRACK2PLOTTING
 62
    20
  5
1F4
 10
48.611774
 20
53.424999
 30
0.0
 11
46.374073
 21
54.096058
 31
0.0
  0
LINE
  8
TRACK2PLOTTING
 62
    20
  5
1F5
 10
46.374073
 20
54.096058
 30
0.0
 11
40.892834
 21
50.931461
 31
0.0
  0
LINE
  8
TRACK2PLOTTING
 62
    20
  5
1F6
 10
40.892834
 20
50.931461
 30
0.0
 11
40.211323
 21
48.574997
 31
0.0
  0
LINE
  8
TRACK2PLOTTING
 62
    20
  5
1F7
 10
47.13953
 20
52.574997
 30
0.0
 11
41.683567
 21
49.424995
 31
0.0
  0
ARC
  8
TRACK2PLOTTING
 62
    20
  5
1F8
 10
60.000004
 20
60.000004
 30
0.0
 40
13.150001
 50
210.000013
 51
294.999941
  0
ARC
  8
TRACK2PLOTTING
 62
    20
  5
1F9
 10
60.000004
 20
60.000004
 30
0.0
 40
14.850002
 50
210.000013
 51
294.999948
  0
ARC
  8
TRACK2PLOTTING
 62
    20
  5
1FA
 10
60.000004
 20
60.000004
 30
0.0
 40
21.15
 50
210.000013
 51
294.999975
  0
ARC
  8
TRACK2PLOTTING
 62
    20
  5
1FB
 10
60.000004
 20
60.000004
 30
0.0
 40
22.849998
 50
210.000013
 51
294.999975
  0
LINE
  8
TRACK2PLOTTING
 62
    20
  5
1FC
 10
65.557419
 20
48.08205
 30
0.0
 11
66.275871
 21
46.541325
 31
0.0
  0
LINE
  8
TRACK2PLOTTING
 62
    20
  5
1FD
 10
68.93837
 20
40.831589
 30
0.0
 11
69.656822
 21
39.290867
 31
0.0
  0
LINE
  8
TRACK2PLOTTING
 62
    20
  5
1FE
 10
71.388229
 20
66.574997
 30
0.0
 11
73.625931
 21
65.903938
 31
0.0
  0
LINE
  8
TRACK2PLOTTING
 62
    20
  5
1FF
 10
73.625931
 20
65.903938
 30
0.0
 11
79.10717
 21
69.068542
 31
0.0
  0
LINE
  8
TRACK2PLOTTING
 62
    20
  5
200
 10
79.10717
 20
69.068542
 30
0.0
 11
79.788681
 21
71.425003
 31
0.0
  0
LINE
  8
TRACK2PLOTTING
 62
    20
  5
201
 10
72.860474
 20
67.424995
 30
0.0
 11
78.316437
 21
70.575005
 31
0.0
  0
ARC
  8
TRACK2PLOTTING
 62
    20
  5
202
 10
60.0
 20
60.0
 30
0.0
 40
13.150001
 50
30.000014
 51
114.999943
  0
ARC
  8
TRACK2PLOTTING
 62
    20
  5
203
 10
60.0
 20
60.0
 30
0.0
 40
14.850002
 50
30.000008
 51
114.999943
  0
ARC
  8
TRACK2PLOTTING
 62
    20
  5
204
 10
60.0
 20
60.0
 30
0.0
 40
21.15
 50
30.000008
 51
114.99997
  0
ARC
  8
TRACK2PLOTTING
 62
    20
  5
205
 10
60.0
 20
60.0
 30
0.0
 40
22.849998
 50
30.000008
 51
114.99997
  0
LINE
  8
TRACK2PLOTTING
 62
    20
  5
206
 10
54.442574
 20
71.917946
 30
0.0
 11
53.724129
 21
73.458672
 31
0.0
  0
LINE
  8
TRACK2PLOTTING
 62
    20
  5
207
 10
51.06163
 20
79.168411
 30
0.0
 11
50.343185
 21
80.709129
 31
0.0
  0
TEXT
  8
CONSTRUCTION
 62
   142
  5
208
 10
46.856487
 20
94.448586
 30
0.0
 40
2.34872
  1
Note :
 50
359.999955
  7
STYLE1
  0
TEXT
  8
CONSTRUCTION
 62
   142
  5
209
 10
46.856483
 20
90.925507
 30
0.0
 40
2.34872
  1
Track2 plotting is mirrored !
 50
359.999955
  7
STYLE1
  0
ENDSEC
  0
EOF
